<mxfile host="Electron" agent="Mozilla/5.0 (Windows NT 10.0; Win64; x64) AppleWebKit/537.36 (KHTML, like Gecko) draw.io/26.2.2 Chrome/134.0.6998.178 Electron/35.1.2 Safari/537.36" version="26.2.2" pages="3">
  <diagram name="Требования" id="z-upY8qerxCOgdylOnhu">
    <mxGraphModel dx="1030" dy="476" grid="1" gridSize="10" guides="1" tooltips="1" connect="1" arrows="1" fold="1" page="1" pageScale="1" pageWidth="827" pageHeight="1169" math="0" shadow="0">
      <root>
        <mxCell id="0" />
        <mxCell id="1" parent="0" />
        <mxCell id="IoCzaxtXlCUUE1eKSygK-1" value="&lt;h1 style=&quot;margin-top: 0px;&quot;&gt;NFR&lt;/h1&gt;&lt;p&gt;- очень низкая задержка&lt;/p&gt;&lt;p&gt;- очень высокая доступость&lt;/p&gt;" style="text;html=1;whiteSpace=wrap;overflow=hidden;rounded=0;" parent="1" vertex="1">
          <mxGeometry x="130" y="110" width="210" height="120" as="geometry" />
        </mxCell>
        <mxCell id="IoCzaxtXlCUUE1eKSygK-2" value="&lt;h1 style=&quot;margin-top: 0px;&quot;&gt;FR&lt;/h1&gt;&lt;p&gt;- GET короткий URL&lt;/p&gt;&lt;p&gt;- Redirect на длинный URL&lt;/p&gt;" style="text;html=1;whiteSpace=wrap;overflow=hidden;rounded=0;" parent="1" vertex="1">
          <mxGeometry x="450" y="110" width="180" height="120" as="geometry" />
        </mxCell>
        <mxCell id="IoCzaxtXlCUUE1eKSygK-3" value="&lt;h1 style=&quot;margin-top: 0px;&quot;&gt;Уточняющие вопросы&lt;/h1&gt;&lt;p&gt;1) какое будет использование, что значит короткий URL, сколько уникальных людей будет сокращать свои ссылки?&lt;/p&gt;&lt;p&gt;2) на какой период (продолжительность) поддерживать короткую ссылку? и как долго ее надо хранить&lt;/p&gt;&lt;p&gt;3) количество запросов&lt;/p&gt;&lt;p&gt;4) количество ссылок&lt;/p&gt;&lt;p&gt;считаем сайзинг&lt;/p&gt;&lt;p&gt;&lt;br&gt;&lt;/p&gt;" style="text;html=1;whiteSpace=wrap;overflow=hidden;rounded=0;" parent="1" vertex="1">
          <mxGeometry x="110" y="280" width="580" height="200" as="geometry" />
        </mxCell>
        <mxCell id="IoCzaxtXlCUUE1eKSygK-4" value="" style="shape=image;verticalLabelPosition=bottom;labelBackgroundColor=default;verticalAlign=top;aspect=fixed;imageAspect=0;image=data:image/png,iVBORw0KGgoAAAANSUhEUgAAAj4AAABhCAYAAADWdaunAAAAAXNSR0IArs4c6QAAAARnQU1BAACxjwv8YQUAAAAJcEhZcwAADsMAAA7DAcdvqGQAAIkYSURBVHhe7f1XuyM5kyYIvnBBp1OroyIiP1VV093/aqfnj8wfm2e2t7dnty9m77Zqp+sTmRnqKGpNujv2wszgcEEeMuKEyjzvCQRJdzhgMBgAc4MBUP+v//ZfNL4ylFKAyl89AA1oaCic8IzWgNY4lLxSZVdPhbLC09DQ0JpYm39CGG5f1wB0PiLDriCJoqyL6VcNra04cvmzyp3Fp6ZURvcxCC9OjG7iHeJhBhqmbp4D+Szzvw9BW/X+FDV5/pXxR0m8g4mRfPyWoKmD+OGgjrSFzy2TY8sJsgJ5SrJKqVIZ1tBIFNN3ErL9EYQuZfXFfJ/aQrHcp7QNgsh2GjttC6ZlnAUmFSj5/J5xCr8UFHcip5RIUtTQOsndK4fNOwBQjpP5rXUqRabuTwSJzunx89BaI0vNDw/SeIiRXxOSox2yd8u+n4J8fCMsab9xmuw+E/L0vKCsxl/wgu8EVj/xrWS0LN/8S+GpQ/DXwsk6wXcIIf1Y+OIQxUYpo0hrrnfz0smGCgBQp/49E/GO+jps+CycTKEiRkvQher+3HAYVIdUqYlduSUo3uH0dS4U8k+D4vuKvyt+nuoz/RS680l/akAp/U8jo7A9ESSfHw2mjLnrp6CEDbkaTN/iFX/Px1H4xMy/Q+TLVRZg8eS3AruNfUrIPyu/Pw3F1M/pVdNayuEAYfnc7DI8BaIKGQpSSp9Glu5s5qel8ONBK308IEGiE5q9UJrHAJUbE1QuUF1o5bDt0YFyPCRaIY419lGMWAMJ0meI8fL5RHim2lD/7//j/6GPDdJfAudOdUGeOQmkaSr6moESBn8qNA4wnrXbHB8NHdantCdTj9xoqQ7StPUhesumssytNH87P7CQPwc+Jxm7zKfgnKzScuZulOHsqS477vEMjt8t4qBI5cEkPBX1eKl+jKmup8powzaZ/0hQJW3JKD2fUSZRiB3r2rlpZbvn9GnTxnBaJWkJ0mflpr2QS4aG2PPpfRIHErTzztMlj+Svl+GUON8bZMyxWaOUQ4XRGkopbDZbrDdrhNUqgiCA67nUb2ptxhp75kubiiatyHFcOI4DpRQWiwUmkwmm0wkuLy/RaDbg+z6gE0npUDVlIOrswUo9ATTV9b2DDTjnwjQ6CayJfhaOaaX5/HBui1DZZ/laPlFJsixp2yQohD23RS9fxlPDpzz7XcGMUscpy5fhqXDyQyUidyj8yLDl+5TwW4SRi08BM6UgY5+E8qcVWMF6KhQsz4eDNuELoJgdwF1rWbRj3/FsvP3WIEUjgbYCqZ7KdRDrBLPFDO8/vMfjaIj1dgPlkGJE1iCa2UjA1huItQekdjsu4HiA8qCVi+lsidu7B7z7cIv5coUoSgAoflb4STMlR0O+GJ+Ib6f42NKTD6VRT/2zYAt66cVzwxMoiZ43XUu8VEjS+3kcu1Z2rwynxjsZ+TKeGl7wghf80Mg36WMBAFkGnr0DesHzQGoprTWxgjuOA62BxWKJ29s73N3dY7VacRyFJFFIEiBJeJJDgy1IMr2loJQDxUpNEieYTCZ4fHzEbDbDfre3rEPfBt9E8SlocVb4LcEoKVYF2wqPfLeVmULIzKeSjB6NnwsveMEpeJGbFzw3NMCrgF4k6nsGz15Ba1Js5DcpOsB8PsdyuUIcx8blRGtF6oNmi40GIEqRBnRC43kcRVgsl5hMJthsN6jX6wjDEJVKBa7r5kn5avgmis+PjLyiRgGFxi2/zGfOymNfz9y3lZwSsDwWBqrjgZeJfsOghf6Se58btFW8/L3S8IJyZF7Xz0fe9lpig33BCTjdn/HrQyPf95UHaZjpoErXCn9phG/aNm0yTJ9y4Lvdl3xjsj8TJQ1eA0mi4TguqtUQjXoDcZRgu91ht4tYZXCN4zJUOrBpDWPx0VBItMZ2u8VoNMJ8sYBSCr1uF7VaDa7nIklszvHEqKwCOxSsJz4HvzvFJ99ATw5WN15ovHz9SyDXziwBOxXS+ZSU6VuEzJzy8wSNbPpP/p3HwO8OCuxyVBaO4InbnwUtI0BpOGclUKErPor88+c8+z2j0OGfET6bCRrcUuQz/eN/T4eMQlDSD7A2kUnbeuKrQst/KU3IlLlIa57mQvlLwveLtPVokMOy67qo1WpotdsAFLbbHbabLRQcOMoxU1kZi494dLGCkiQJNpsNho+P2G43CCoB+oMBqmEVSjnQiW0N/Loc+l0pPnmhPevPqpevJcyUb1FxOIhSBScf6bcH03ROtYR97sDwFVCsRxpJFOwCp51y2mEff/57x3NUzXOk8XuG9HfSf2RCPvLvHNKnnIJz4n5NpEozKzMAHOWgWg3RarWhlMJmvcVytYaGrNZyAUVWnSShnkcpBeWIYqQQRxFWqxWGoxG0BhrNJvr9PjzPI07QsuVUzk76ex44+huNjPnimD9pXZ8bvgDKks7/PgjuOORTArjCfw/IV9FzBcCaMnwi/PDIrezLhO+4gAVaD4RPQX41ET4jrRe84FOQ72fKwvcNboFKAYqmsHzPR61WQzWsYR/FmM/m2O8jaICtPfRJFh5pcVRSx3URxTE2mw122y2ajQZNc4UhPM8jy6S8kAnyDCsLz4RvYvE5qtzw/c8JXwplnXP+91FoW2+loF9eo17wG4e0kbyCUhZe2sJvA2WbB+arVn7nr7/g20MnGo7rIAxD1Ot16CTGbD7HerVEHEeAgjm+QkFBOaIAEZRS2O32WG82SLRGs9VEu92GX6nAcUjtSMzb/9fHN1F8fnR87hvq18W3Eaxvgd9PSX88nGqNUnipyO8ZpJva++6UhwK4w8ws4MgpPy/V/h1AA9DarOCqVqtoNZtQjsJiMcd0NsVutwM07eoMAMpRcJQoP1zPWmO1XmO1WsN1XTSbTTSaTbiuC8X+P0mSfLM6/80qPvk3yUPhVM7L1lolTfpsmDROzPt0lCeYt4j95oKxnD0dKF6eQydCmf++HXjAgDVY2OF7g80t+4XhUPg9Ie+Thu+mDg/XhKZxEclTQcpyOCkjy3aZ7eZ6GHmp+dxAadImfPQ7QxMraseRT/OccAz5uM8V7PRzP82SdUBBodVuoVarQycJxqMRNus1AMB1XJ6yomXv9Dz57Gy2O8wXC6w3G4RhiEajgWoQQCcJH+lE0R22FFmZPxEE+euHQjm+ieJjr0DIh1Lk3hQOlUdBNlc+czjIRy88kg6u9jSVHfKDcWGw5XhC+oEinIb8wK81NJ+pkqfrQIF+CORl41CALIU88e88MFdlf4snuPwlOa2haY8M2d6/pF2ksnYeFNIClHMoX8p8IBzudtJp3mN/xXSLediQN0w7UL7pc7Yd4vRQvPKcIZUnK/CXXPchJT0QHGv/FQqQlTbC9UJfYYUSLmnejbcsaK1OqCdJW4gv3jeBdwGWmBSbfuX5kAahP389z7MU+fta21TkRwzrvEdLwDLxzDlTLFklRcuHQv6ZcpTUTYbG5w5Ee6YvBdOVkDUnSWJoaNTrdTTqDXieh/l8gdVyhf0+hqNccojmc7mod3WgE2C1XGKzWkMB6HZ7aDSa8CsVUnoSpkCBeXsOpD5ORfa0BSm/U2Q2he8G1huuQPP1MuS7hVRks9cgAvBk2dPfx7tnXVhoTe89FOg3RS61NBUTPBg0bLqTJ0I+o98eFABHkbn1lEB+dcV6Lw/5ThKWHBT/KMbn4VCdSd5PqbgHHn8Sx7qUYqedDYcgsq4LRJaHtOz5m4BSOhcAoEQRNi9QPJQrwJGxjJ7IygOX2r4ucQn53qM8yCCQDgbFOBLypcuWNAvaLO5AMBpv+uZtp0G/D/2RdUZD5Xor6jETnQ9MY+GgymKAMhRY1ByAQqoAcQGK7TAfijKYkUWLGOJfMZ4JqaRQEGWHy1Aol5RNMS9MGqcFsYal4difYdAXCKKsWC+EWiNOYsRxgjhOoBONIKii0WigFtawXW+xWKywWW14aTsrP3AA7UBphSROMJ/NsdvtUKlUcHlxgXqtBtd1aHrLVFK6oqtI24GQqYRTgtRtym+ob2TxKUpetnozUa1PQ7j1WY6sWNmXpeFIvvn8ypFPryxkcTjdYlxK4Yw/Izh2Cr89FDu7J8KJf8/NrsNS8PzIS10+fEuIzGemko+2hedCvuRWxpYV2XSHOYKU0Jy7lv/2/DAUPREOIR8vjW/LQ15GMvJixpLUykFWjAPpG+aV3CuET0E+jWPhU+JnkeeHkaRDyUMsQUWpOweU13EFWNLPKGXPFFLkeKPoyAqagqI+GFqjVquh0+7A8zwsl0vMZjPy8VEOoBwzfZUkGtvtDtPpFHEcIwxDtNotOI6DOIqhE3lt+zpgnTd77VtNdZVC1OaDInoqSpiqKf0vw3ASHKJZvrMwFV6DJE4J8hJ/LLygHHk+HQpASY92OKgn0j5Qoy/4JNjtxA6HrkmFmorNoFA31oVS5aw8mZOQKuHmXe77B8tw/iXiIDRK6qEs2PFOwTlxBfk8ORSsAs8DhaLSfDYyfRAAnh56Tjo/GYqogVhR6QKSJEEQBGi1WqiGVWy2G0xmUyxWK8Q6hnIVHNeBhsZ2t8NiucR8voDjOOTbU61CKWWcmVMZOyJnR2BeXj89iW+n+ORFk6q95G285NJhSKdTZgn4cjDCoikU7aLP3whf8DmQesjXTVmgePmrmRgvys8zI8/hYwFW73dGK7eiSip2imfD9Dv84xxavil4ELIHkoPkM3fy8UpDnqunhcK0Jci0Yk8OEI+P1Vb++meaZ0qQ9gjplWw4jHQ04kkmRdOk+TSKeXxpyPQe08dZa63hex7q9TparRa01pgt5hiNh9jsNtDQcFwXGgrrzRbT2Qzr7QZ+pYJ6g3yDJB36YtflJ1SMJh5+zsh+UPEpKA+faDEppPFkQaUhWvHz4SxxOD3mYeSF2hbONMb3ijz/PyX89nBqjZ0a7wXfFr9FGRWUyWDZta+BYh9YHo4rP3l/KAqKh6Q0KJ5KycdNy19Mu3jd/v1MULB8yviSUdY4QkmQ0UuByis+aaQAUbmKvmpfC1afn3DQAJSC4zgIggAXFxeoN+rY7bZ4//49JpMJttst8cNRWK3XmEwmAIBqWEW1WoXWmqbCJBvja/esNXIWDio+NrQd7FmbJ5F2RvI8Dg7EJqqJD2GMRYDCAefgUthC+KlIny2KMV89iZYviyI/f8tKSxFUzlPCJ75lfCfI1+3B8IWFMt8OnqOlfVVYzdb+/CSu8Ruo/CjURUkgAk4MKL77mUCZZ8BSTrRkb50M+406/3cMdix9kO70BPD89RSpxaPM3qogikbOPcnka/P6abrzoGfz9KWBkpNUSaFJl2mnBJE/DSs1yoHjuHD5uAdoi04r7yThYyCE/s8Ndup8jT5yMmkTYRq1xE/guA7a7RYuBgO0Wk1st2uMR0NMpxPsdzvstlts1mvsdjs0Gg00Gw1UqwErPWni30MfcZLiA6TKjuFnPkIJdC6SPqojHL5ji/yRaDkIe3NsZjmQZA4mJ/KihfBDgaMfTOgUfNbDL2Dk23t5eLLmPwtfJlXBGamfEfVTkd8T6/QXkhOQaX9Hrh2D3U9pEZDs8/RBWwMAxe7iFJxCSgEauZ7tSCj0OdzvHOFDKusHIpyA/MCYtp3jsOPR13yZLNpzQdopgeOKRcT6K7tG10uSP41sAyqrVX7hoVh5rLiGFuVAOS6U68JxPQqOB8d14bh83SHFx3E9c54VZUjpkBWILUF8HZz/5/zZIkA8Ec4U2F8KDeKDUkAQVNDptNHrdhAEAZaLBcajIWazKebzGdbrDQCg3W6h0azD933mYTb9VBqU8bP7mlD/x//z/340Ww1ue7nr+VUQAAmFIN9INKi9Kk3aVv5ZG3kmnQpFbcRKO5tLKU2ZKwS7HKcin/Y5kLeCU1IQyixOk2h+Rv6n4FN48v2CllHm5UNQLOshSSHYbaSsXRxDMa9jskQd8qkoS/tTkadJcVlPQVFmD+Mgp3nQyVxSirfNlyekHWUHLLpqnkrf4qxL+bRhLfU+Gxom74PQWaqeD5oWTGf4cgjp1EueFuJh5hLAPD9GtS6TlSeeIaTLwhXAis35oDRKCC9IVlkcgdxj7vCgokBTUOauAi/jVnDZkqMcUmGy/BOLCpVOId0rR1Y50RYKyuSpNW30lyQ6o9B9ElhJhKkbbY05+YTLxxJHOXAdB67rIo5jzBcL3N3d4fb+HoBCp9OFgoPlcoUkifGXf/ozOp0OKkEFURRxsTSgabME4gUpU1rThi9PQeSIaiCNX9Z2Bdp0UsJXLv2PoPhIWscKCE4zVXyKcUtpylwhPJVPGfJpn4MXxedr40XxORd5mhSX9RQUZfYwDnK6RDlR36viAyKpfABm6Kd6QYbQdVLFE/f0GYpP+pkdXHXG8sK3mJZjVOuMrJAm4zhs3VDmEt/O0if9ILhuD0HuFErHloUibKnKfhIJ6VOifIiCIHTQB+fM1zQ0dALs9zHAVhuRvSRJEEVRmj7Lg05obxyt5ZP3mXIc+L6HarUKz/fg8A7IGpTuUaZbKCs/lYFp5nJJnRfluziWKFacHIdOZtdJgv1+j9V6jfcfPmAyndLhpRrwXB/NZgN/+ae/oF6vwXFIUdI6YWZbSs+Zig+YakehpM7K8TtSfA6/KZTSlLlCeCqfMuTTPgffveLDbzu/HXy/is/xenxRfIqwn5B29B0oPiU8S6HYy6AkbbsoGhDLRyatksfMg9rePPVQ/gJOSKxPzAedjk2cAlkdDI+U9ayVBz2T8l1uO64DRznEehp5+JZNnwwyTAd/0pV8fQndVt4AD65ptBRcGMAS2mN9ZlbxSUUj5YFWQBRF2Ky3mE5m2O327JtDSlCiNVk6LIJSuwsVjdImx2Hf9xDWQrSaTVT4IM+UPwUOpOy3kJYsCxoTmW4rTSp+PqE8X9iPistuxletkegED49D3D/c4+HhEdvdHs1mC9fXV/jpzU+oVCqAIl4kCSnj9Cyf8fU9Kz6QR+y0+Yl8djYBeaHKsrL4bB5PElUCI0z5G4xjNGVQkkYaV5dSn0/7HHzXis83VHo+p0wkiuV0a/4vL5PyrbwdHaelPK3TcCp/7cH8FBzrEMpxKH5W4TITJCeSUpTZwyBpLoGZCrAhMYvcF4fKNG/N/+fTyPE/04fl6Sk+m6KEarmUoTvPjWyawmdSQFKLg9FESuQzlYlUY9HmezZeoQQaKQ28a7Xm+qYgBBGf7EEw3zzJuVesGGlORvEBKQNy33HctPimPVJtFOuakE9baAIUbagn/iQWv0xFGF2KeZSjn2DxjxW+tOz2VJfCerPGeDzB21/fYbFYIIoixHFMfjy8bw2NJfSc53nwObiOA8/z4LouXNdFtVpFo1mnTQLF4pMyJYWpqiJ/JGrhEeZP7irzPH89P5ak/AXnm8qAg91uh/uHB/zy66+YzWbo9wf4wx/+gH6vB8d1SYiUMsdfKMAoQJQulfHUfo2ey8Yt4wVBfPfS+NSHnuDjI8hGKqmQM3BMOYERvRTH4togphxOu2wgLV45BmakxhlUPY3vVfEpbzBfD+eU6Rxa01SL8YtXcLKUaKajTAJLOzGUxz0EGohLEjmAg/1BKc6KTJ3XiaRIGU/JId/2DcratYIVW2dbRY5XNIyoUiqyYmYPbkyPiVBUOgQaxBMZ6FLI96yiILRRp53GASyLB2iJMBWTOMPjSJqKhpnuk1OyJT2tNVkONFkikjjOFzbLD8NPfp7TN7cV+XqAVx7tdjuyVnh+Jr6tnGhouK4H5ShE+z0eHh4QRRGCIMBgcAHHEb6QPwvlQ3UQx7EJSZIgjmNEcQwFGH8Tz/NQqVRQ8SvsF8Onfid8RJBFB4HzSL9mkRHqbOHTeiX52Gy3mEymePv2LRbzOeIkhuu68D2f9q5RCgpEp+/7qPgVVIMKqkGAoFKB67q0ystz4LkeXM+F65BlDLAVgpQOxfJRhmwJU5TLLG8LwOe6pSgbSyRPkn+d0CWaxkrw+PiIX3/9FcvVEpeXl/jppz+gUW9QO9IJwJsgigxTH2kr5qmC+RSI2hxPygsIQCw+aVwNls9TFR8bRcach2OEQsiUKGdMHShpNPkbjM+hm94B6I9ykPD5+C4VnwMD+NfEOWV6SqZsiHzZqSu+cXoq5TimgOXLYwa3/NTLAWg+9e00yOBzavyiPCtWF4qgTkudWD/SXk4pJUlzCQ7JY65j44vE6/QthdpI5igGG/Zv+c6WD/5l1125rHHKCpk9abTm/VAyig+nrEiLoU6fPpVyKQZHpnKwE6ycvaeFTM1KD+fr0LQJ7QRMCorj0KfWCXQsvj8Eu241H9+jHC6f5WOSsBLhKJqXWK1WGI8nWC6WCMMaur0u6magY+WMKgxaabiui+12i+l0il9//RWO46Db7eKnn36C66blTRJSWpIkwXa7NWG/32eUIKHVUTRFVAtrqNfrqIZV+L4H15Uyc/kUWYPopza6jRlsLSVZ2gxVsaX4ST1psBwpRFGM9XqF4XCI7ZZWM4mS43k+HD693HFceK4H3/fJ4uO68DwqN9GR+kERnWK5kvq1ZE9oLoHOxDwOklE3K/vCB/OOZqdGx3TQZZIPx3Gx3+1x//CAt2/fQing5uYar1+/gefxaq6E6KeyEIWivChuZWCJPVSuLHRhGre8PRK+O8XnMKnFCjwW14Z6Iu3PoVuEkFIQs/uhnM7Dd6f4HBpkvjLOKdMx4c9Dg8pYkLHflOIjtJwaPyvPZuDSKKYhHdiJ9UPlPE2iKOUSHJTJsie4LeUVH9N5W+W0FA+BFEtzndHP1JrhOFleSWzTJfDLbNpH5P1mROkRHxLy9yH5UEgSTdaNKMJ+v0cURUjiGDqhQR8AlOMAbOFw2NJjKz7psmi+rsg51XMdssCwkmIG2IR8Nqh8DlyPrBEapJBotuJs1ms83N/jl19+xWa9QbfXw08//YSLi0u4jmsUDAU6CVLxlM14PMb7d+/w9t1bNJstvHnzBn/46SeaDmHeJuw0u91uMZvNsF6vsN1ssY8islglQkuCJCIlyFEOTRM1Gmh3Wmi32qjXa/B818iulr1xjNxKfaUVZvjKio/UKTcDU4+wFB+hebfbAkhYeXHgeS7zWDYk5OuuS6mwYhMnCZI4RqJpVRdE3oyfFshnyJLvZ1N8QMvvMzvaGFmX72lqadpSHvpcLBa4u73Hx48f0Gq38Pr1K1xdXZMMJ4klszKpRuVTphjcBkpaVDn0j6v4SCUfw6fkIKk+nfr5+L0oPscG7u8J+fIeE/48NKiIdgqKb5yeSjmO8a9AM8f7XMWnvDOUeMX45Ujl2ealGTws2o3d5ESZ+5KKDw0QuSfEWTcX36TNdUSdryg93KbN267Et976M4OBnTbzQ2lE0R6bzRar1QpKOQjDGhqNplGaaJpAFB9SYBQU4jjBbrfHZrPBZrPFZrPBcrnCcrnAZr3Gfr+HhoajHDguPSOmC8ehPjVVfBSfnE0OskopeK6Leq2GwaCHbqcLz/egeXASxWa9XmM+mwNKodFsoNlsGoVQpprev32H9+/f4e7uDs1mC69ubvD6zRt02h0oxadvc20rR8FxFTbbLd6/e4e//f3vWK1W+MNPP+HPf/kLut0utKZTwKE1ojjGdkvlXq9XZlWU+MGQspYgSTT2ux3Wq5WxCiVxjGpYxdXVFS4vL9BqNVOljuWYZtJkirZc8YERD5EW28clq/ik98hSJtOAkm4cixIIKEVTXkRIDECUHApEBYy1B4quxV9I8ZGpLra1APlnc4qP7LyseBNGpRR0onF3f4+7u3tMJhPc3Fzj1c0Nuv0+4oimJZOEpibT0S21+JjfR4wVRWio51B8/tt//d9P59UzQEg8TKrNkuOFyuOUtD8VecUH3EmmP6m7KUN+wMvjORSf3xvE/C44Jif5e8SxIs9MrOKtDPLp2fiSik/CHXSevHIlPDXXn4Y0jUOKj3yXmKdJrJQzTTNPqY2D0nxQ8aGpoCxU6aopk7ZReKismk+VpjEppjdVtnyYDeiUAtgPpaz6kyTCZrPBcPiA6XSG9XqNWq2Bi4sLXF5eEe/Y6kNDSkKDpetivd5gPptjOp1ivd5it9tR2O6wj/ZIksRYEjzPg+d5bF0A1YdYfKQ8tBwNYJnTiYZSGvVaDZeXlxj0+3Bdl6aVzFSZwny+xMMD0R/Wauj3+2h3OnAcB9vtBqPhCO/fv8NivoDrOLh59Yp28W234bk+8Zf9dByHDq50XAcPjw/49ddf8eH9B3S6Hfzhpz/g+uYavu+nU1dsgdrtdlgulxiNRlBKoVarodlswvPISkWFAuIowm63xXZD1qEpW4iazSYuLgZ4dXMN13NNN02KJz/MlaGUrezaUieKkBUHIMHJKT50mayAjnKMP5L4K6XtipRSJAl0HJFiwf2BchxWWIkOqkd6+ktZfABWng/sYUzppKmRSBE/HMcFtEIUx/jll18wfBwhivb405//hMGgj1qtjlgsPjqB0qLswFJ6JG1RQE8DPU9pGvYf4InUaaFuga+v+EDE4Eiu2n4bP9DhlcESz2dHQfHJfIoTYnnO+QEvjxfF53yco/ggd19D09uf/Yi8mVmXDuKITFI25ffycnC+4sMDWe46ZVlMI7/64TgUd4ZihUjzIqVHpkVIUinPdIAt5p5Fnl+H4gvFZSzJpwHpxjR9S68h4+ci96SlKMUdJXfe2+0W6/UGu90e0Z5W5kCRUlKpBKg36qhWq3BdlwZpEoA0vyTBZrPG4/ABt7e3WCwWUFDo9fu4urrG5eUlcU2sPjpVfDzfx3g0xu3tLT58uEUUReQTwgO9w068QVBBpVJh/5FU8bGDTY85a4mnqqA1goqPTqeDVqsJRznptBTns1qtMXwc4t2794iSBI1mE69evUJQCbBcLfHrL79iOp0g8H1cXV/j1atXaDaacD0PSSyWI6LBdWkzP40E//j5H/jw4QMWiyX+6Z/+Ca9ubtBsNY3PDqwl79vdDrPZFG/fvkO1SmdDDQYX5Lcj04eKRuIkSRDt95gvFhgNh/h4+xGARqfTwV/+8mcEQQDXdUihFdllS4b0tmIVS8WH7tuKT1rZ6aeGMJ3iAxpJnGC5XGC93iCKyNFZprvM80kMHcfG+Vo5DnzfRzUI4Fcq8FwXrutAOZx2kk57UQrlgzxEyvneE0OO9WJwILEcSGEHtSzHRZwk2G62+Nvf/475fIEgCPBPf/kzWu0WPM+nJeyibYrzvfQbpiXS96f6bhsKGtCpMvjUs2LxybPjRfE5EdQYjig+T1TAMbwoPucjr0ScA8Mxu8p+AMWn4Jx7VAmiUgo9+bzzUJDDIGkXWsWrasB+PvTmyeCBG5B9OQ6VWJDelW+H4lO9FO9qUL7lkPg8CGkAys3VkQxP0laJJ7PZHA+Pj7j9eIvZbI7dfg9osVa4qNfruL65xtXVNZqNBhx2nCWQlWW33WE8HuGvf/sr1qslKnyY46A/QKPZRFCpEgVG6QHxzlWoVCq4vb3Dzz//jL///R/wPR+9Xh8Xl5dotVq0csl1EVRJ8aGVQOJjIWQYiYZCesBk2i/ItB77ZbG/T2JZhpRD/NrvI/z88y94++4d5osFXr9+g2azic12g3/8/e+oBgGury7x5z//BbVaDa5LJ28ry7E5ScihOQEphP/2//tXTKdTVKtV/Kf/9J/Q7XbheR72e/LdASs+nudhuVzi9vYWf/33v6LVbuNPf/ojLi8voZRCEiestJAVxuFVZkmSYLla4W9//SsWizlqtRD//C//jLAawvNcKMdBFMcWT0RxT+lOG5Kt+Ajy8khDuOLpRQDY73eYL+Z4++tbjEYjbDZb+D45OIP9towSIBZFpUjpCUP0ul10ul20Wk34Pim2Qiu1t6zsl403EsN8HmwvOEvxSZMhZU8pF/v9HtPpDL/88iv2+wjdXgd/+MMfUK+FACvVpPjICrtU8SHSs9QeU+hs5BUfHOCF4JDiU27n+p5gvyWdEF7wgt82rEbODoZKnFi5Y6KBju6BLQ3HkSpUjuNit99jOBzhf/yPf8e7t+8xm83hOB6nZSvo6W97AqwYnhnSeyrFy5AcgKesoEEKnNAm/Qc/St/JDL/ZbvHx9hYf3n/AZDIFlEItrKPdbqPT7qIW1hDHCe7vHjCbzrHbR3AUOYQ6ipx/4yjBcDjGhw+3WC3XaDTbeHXzGq9f/4R2p4sgqNLgmnb7XAZeTgyFahii2Wyh2WwhTjSWqxWWyyWUclCvN9DudNBsthAEgdn7xSg/jtQ1OzArmjZxXD4XypEzolIHaMV8UMxL03cqwPd9XF1f4ebVKzQaTXy8/Yi///3v+PDhIwCFfp+Usnq9zo7JFl+ZyZSfi2gfYTKZYL3eoFKpYDAYoFarw3EcUmJklRorIACw2+2wmNOeOJ7nIgiqxm8pK0qsZMnJ37xnjuO6cD3PHB8ByNRfVkKfBUy31IdONFsPV1gs5hiPxhiPx5hOp1gul9jtdtBaw/N8NBp19Po9XF5d4vr6ilfG1VDxfbPnUSaf56P6bMjLkwLJl1K0om2xXGK/38N1XdRrDVQqFWjATM9Ku6OmmnI+HafTMj7ZRT0zvn/F5wUvOAq7O0vDt+wovgbMW6/Dyo+jaIpKOezvkTovSsd1HMQxRznYbrZ4fHzEP37+B+7v77Fercj8rhx6+8y8IZegNKtPGHKU6TXpSZMEWTDMIC/TzIXOla08rBCl/S2ZsZIkwZ4Ho1q9hqvLS7x+/QqvX7/Gzc01Wq02XNfFZkNLqpNEA4qmZJSigW6xWGI4GmE6naISBOgba00bQVClk7gBVntkkJfBBIgTjaASoNPt4fqGlI0oSjAeTzBkywH598jyaJq6MUGmtPhEbzEsiHxIoIxZEWaeaDBfiClEp6PQaDRwMRigP+hjv9tjMp1iuaDpjGazhUa9QfSUpQcwjaQETCYTQAONRhO9Xp9282ULCNUH08YO6XGcYLvbAVDwXB++77N8k7KZkWtWava7PVbrDXa7HRQUPM+nVW+GNnugPSa4AltOD8lsNk1HKfieh1oYolFvoNlool6vo9looN1qottpYzDo4/LyAtfXl7i5vsarm2vcXF/h8mKATruFWlglC5XJ0qLVKD/fom9LcxQFNY4jrFdrxHEMj3edpqlgsg4nSQytY8v/jhy2zZ80ygwfT4W08xNCZqFDGtz/5T//3/7XfLJfGpJ9GUxb+AQoUMV84uMnwDTt3GcqEJ+GYxzJopjz7xk2N9KgQAL/ZJXk7p9cC0fewE5TMgiSxqG0CrAGdlJwZBDmUrMSRIoPD3jMBM0OpOVyKkoUWQgm0yk+fPyIX37+GWGthm6ng163RytqtDbLUYVh+a7YzlfST79JmY9AnpW0LX7Lb7CzqGzYJw7ASsk8ecorA46rHFGmFHa7HYJqgEF/gDc//YSrqyv0ej3UG3VsdztsNjsopdDr9dFoNlHx6TgBKGC32+Pjx1s8Pjxiv9/j6uoaN69u0G6TQzDY2sSEGxLI94V8tqAB1/VQCQLU6w0kvLpqwlYC1/MQVAP4Pm0SCF4GDXa0FmuNHciNIFV4SBFiEnJKq+nRlDLKhFIKrkvTLaPxBPv9Ho7rot1uo9vpoFar8TQOWdrssYuedRBFESazKT7efoRfqaDfH+Dy4gqe50Eb/w/Oly12ruOSn9FwhO1mg1a7jX6vj6ASsLJDDBQaoRTiKMZiucB4NMZoNILneWi2Wuh0OjxlK6SVrP5TLKv5i6XfbShhJgDyqVJKwWVn+FoYotVqodfrYTAY4OLiAleXV7i+vMTl5QUG/T76vS6dYF6vIwyr8H2fXy54B+oyhUCa1SGyzoIkdEpiEodernSisVpv8Dh8xG6/R73ewMXFwFh8ZJdmDTqQNOWxtoL8lub+NB0ko5krRJNhSj5wHJN+Gg4qPqmW/LxgUo8U0zJLc9wjkTNQKGPOl4DFVPlWaEDngJ+lHv5oyOZ8Wh2V1eWpwvb8eM48S+oBFluOlDF/tZjSEVgDcQGl8pdOJWUDpVOMXwQ5U1J8UnjSzl9xqxEnVsUm/7RDkPoW0A/N/6WyS2nNZlOMRmPMZ3NcXl3i4uICzUYzXS3EyYpcFUrA6aXVkJb5tLJm05CBkUZwGiiVUoiiCMvVCovFEtvdLrPsWcoo/Ymy0kynf1yE1SparTbarTZqYQjfrwAAptMZHh6HWK83aLc7GFxcoNFowHVpGiWOYszmc7x9+xa73Q7NVhN/+OkntJpNcu6MqeunfzafqM6EN2REcuG5PoJKgFqtzlYRYL1aY71ZY7NeQynQ/jAeKRxSZ4rbN5UPVP+ctpiFKC/OkZhr6FAsmyJLYEfn7W6H6WyO0XAIz3XgV3zEUWyW1ru8UZ/wW6wy9F1htV5hPBphNBqh2+mi3+vzEnO2UonsKPpPgRTa1XKJyXiM2WyGil9BrV5Hxa8AfFK51rTH0X6/w3q9xmg4wuPjI8bjCaIoQrfbweBigHarlfpj8fRmrmNgFtgSKfdPgOLoMoXGU15hNUCz0US700ar1UK73UGz2UStVkM1CFCp+PB9clynWiAFwbxUZKwhXxosB0+C+x7lwHVc7OMIC2vlXavZwmAwYH5b7c3ypeKGYKWYymm2vT4FaUspsnVoQ/obeXlKw0HF55vBZo4pj10wWyBEQNiELJdzjLA7XjscEq1yNqadNjfTbGpGkOXOuShR8A4QmNJxIMKJOCwwpyPlxfG/1ORIT5knlVhnVPrGSU/Y3M3kme0WJKY8Y8GUz07Hypc7aTvk4+bzFpTyTpn/Cs+X+cAQXziuNfCUhzRNop0PQtzvsVwuMZ1NMRlPsFgusd6ssdvtWU+g5diymV/6wm/5/phykwP1aDzBcDjGcr3C9dUN+v0+qrUaW3uE/wrgqTXiHZ27lIh5AeC9amy+8uUSXpjASk7M0ze2VSGB5ikPB4nWGE8muLu/x+PjELv9HpUg4IMRuawiJbxnTkoA/VAAXM9Dxa/A8324rgetgfV6g4+3d1gsVvD9Cq6ur9FudxAEVaLecbBarzEcDnF3d49KJcBgMMDl1RWCIKCN/6TcPAWZllFkgfQSgPfgASkOvueh4vnwPR8Jr5xZrmgvH8dRqFR8hNWqaQBUVKlIrlnTF3Ec/iy2HKsHycnZYrHAaDzGbD5Ds9VEp9OB73u8wSAtt4eisrnsd2QUH0dhNp9jOp1guVxgMOij026jWg3IKmWOlLAHP/IN2mw2mE4nGA1H2O62iHY7RFGE1XKJxWKB+WyK8ZgUquFwhNFoiOVigUQnaDWb6PV6aLdaZH0w8srl5qmWDCzF1OZN9nsRLEL8I/3tui5ca9sBCi6fbC5Hilh5Kl4qbocncz+MtCRHUlAkI4Qj8WwJ4hckx3Ww3+0wn88xenyE7/lot9rodbtQEKWWFz2wjBXzyPXVLK8phAPFkI3HrcqS92KgJ7jXN38HFZ/8gPAp4RDy/ZCNPIuyMdNqpVtpbJo/57jK/Me0FLjBoag6SG55+ij64fIpHpDS5/MpPIED0VPtPy8AWcrz9JyCT3nGxiGhyv8Zsi3mK/4pNCh2zjS8za9gYhgOWJc5l3R1lOhZ8qMkkOm85K8gx2k+eeT5R7/pXUZrLp9l7UmvK15ubReiSGM+KEoQig9k3O12mEwnuH94wN3dHe7u7jCdTDCbzrBYLhHHGo5L2+cr5md2STynLXLLTriPj0MMhyPsdntcXV+j2+uiUgl4fFW8FQArJOyXIYNewmfzmBwU0U3sKCmTImWH2JJeX2822GzoGACxcGi21mgNbLcbvH//AR8/fsRkMoHrumg0G6hWq1BW/kWQPJppIStfpRzsdntMp3O8ffsOGgqdbg83r94gDEM4rmta32w6w939PSaTGVrtDi6vLtFsNmkai7MWHivlmBZLgxvLBPNTgVYWJXECRzkIggrCsAbf97Db7bFYzDEcDqGgEFQCNFtNQzfVGCWmZK2O6C+HIKzhSEQGP6SARCcYT6YYDoeIoj0uLy9xdXWFer2OJNFYb7eYL+hsKq1AuzzzMmzHJQVuMhljPpsh2u9xcTFAs9mA73lkfRGnZkMC0e65LqJoj9VyieFwiNl0itl0ivV6hdlshsl4jNFoiMfHRwyHI0zGE6zXayil0Gw0cXV9hXa7jSCgKRcahLmsxrKSlYusnBySmXLYfBZ5KobUiVuzZiM0SB9F7TH9+1zky5iH9FvFvq1wga9JfJrO22y3mM9meHx4RDWsotNuo91pA5CtFGjqL03NTjdNz/wycYXu4/RTm5Fv3ILU4ceohVl/6htZfLJFz0LupYEKWfyefYeWLxqilFAO+cHpKUjsU5/il9oilSUJHKLF5Fl22y4k37e+ptFKHz6G44P6KZAyH9uaACZejkeiWEAGXhpITd0V0kyJ1cibTSll9gIoMqeAc8quDraoPM9TuZPr9MZPv3nwFuuWogFRyp8+dzgozsNxHOz2O4yGI/z7//h3vHv3Dvf3D5jNZpjN5hiPx3h4HGI6nSOOE/iVCoJqUCpgZgDiTdS01nh8HGE8miKKYlxeXqLVbsP1yBoCiI+Mgy1vNrdYLKAcMvXL/iM2vTb9GUj9SzxWgPbRHu/evcfbt28xXywQhiHCMKQVTY6L1XqF+/sH/Pr2Lfb7PZrNJq6urtBqp2/6AC/ltwPlZP+gocbiwXq9wWg0xt3dPeqNJi4ur9Dr94k3/EySaFI47x+w2WzQbrfRbrcBRQ69m80G680a2+2Oj5ygrQCUYh8JS56MkqTBNJOPjO97CMMQlYoPQGE2m2K/30FDm+ueWVov6YkiJ6XM9pFlLKAniV/gdpEkCUajIcbjMer1Bq6uLjEY9MknpdVCJQiwjyKsVissFgssFgskcQzf99ni5WAymWC5nEMnCS4vL9Bo1GmJu9k0kXkufGG5dhzaqHG9XmO7oRVS6/Uay8UCy+USm80GOkngOjTVRhsWXuDq+hK9bg/VIOAjRYSnPEWqafuFlAGHkNbNl4b0HyfuZvFssPstpVL+03cYWeAY6X3eU0o2jRw+DtFoNtFut9GSXb7lhSIjbIehWObSF3mWxbzgGpk1X2wxpt8nVp3+VlNdeYKP48SYCmYASTvbbCWfAol91lOW4mO693wCJs5xnEJuGf+Ol1OesEN2UCpP9TjSMp8AseBw60obG/sryLJcTk1Lx6Vg0WXTmNIs/8s34Cll4jQ+F5FNx+afMhuVER3SBmX5pwT7OQUaoYR2+68MClRnjutgs95gNBrh17dvEccx7TdzdYNur4tarQ6laEfg3Z4cDWu1Onze+K7sjVAcm5MEGA7HmIyniOMYV1dXaHc6qPiBoVtrIIojPDw+4OOHj+RUypvsGSdcSP9l8Ty9Q7+tStD8W/G+Kg+Pj7i/v8doNESlEiAIAgSVAFEUYTgc4v3791gsF2i1mri6usbFxQDVatVsSKdQkmGm/mANckSlo1xst2TGfxwOUa2GaIlSg3RDQKWA2WyGx+Ej1us1+2wAi8UMs+kUk8kEk8mELBazGeaLOTZ8iKXUAeVeopyxtUopBc/14Pk0VaKTGLs9TfsopVCv18nBWFFDMWXmNO1S2shzQMkgAzr6QimFKKZl6MvlCt1uB71el5avs7JRCSq8tJ7O2YqiPZI4QTUIEFar8FwX0xmtBNvvd+j1ugjDkDchZEtIRvHhwM7Bvl9BUKmgWq0iDEM0GnR8RqvZRLPVQrfbRa/fw2DQR3/QR6/bRbPZRCWo0NiL9MWIPngwNTl+HzDyX2yOXxR2u+MrJXxJJUT6aFlFKRa48WSMRoPqpd5ogESR6lZbcnUcXHij/AgzTmCKPKrSHvOkLL+F4qP4v1MJLK+UEkgLsgYWlFbycZzLQEDKIwMWV0LeaPGE4mOX8imS8xw5rYzyVBpSPmVyzz13GJnyPgEFBc10irMqNSgyjwP0Ri1v6wC9CclgKKlkaOUeU8Ex3kHAU0qP0HAK1TbyaeQVn/S7dOm2HLKV25RZ8ldCrx34mUJ+UHTMgeNiu91gxs6njXoD19c3+Ms//QUXg0s294fYbLZYb7bY7fdoNBoIq1VUKpXCrtcwe684SBKN8WiC6XRmLD6UXpUsMhrYRxFm8xnevXuHd+/eYjadoV6vo9GgqSZYAw91SgdkxOqwYK06U46D5XKByXSKx4cHKEfB8zyEYQ3L5QIP9w94eHhAEAS4vLzE9dUVms0mXIemoihtk4sFm59SS+l1x3ERRRHW6zXG4zHgKFQqAZ9ZBYCtQ0opzOczPD4+YrlYQGuNhBWTzXZN522tyTF5tVxiuVhgu91AObRhYRD4hgxTZkvpk8FD8a6+lYqPiu9jtSKLRxTt0Wm3UK0GcF0pSxrUEcWnAEOH0AJE0R6z2Qzb7Rb9fp+UikoFiU7YqbmCMKyyouuZ/YFqNbLMuZ6L1XKJ9XqF3W6LbreLMKzSii7mobGyCa1cfseh5ei1eh2Neh3NVhPdThe9Xg/dXg/dbhf9Xg+9XhfdHm34J6vMqFppeqk4cKb9yu8dxb6vTFrkN8kEtUv6XK5I8ZlOp2g2SBlt1OvmSbFeFpIsgwYUn0uW1s+xerLosr5JkU7JEl9a8ck3amU69tMJLA4GB0CthysqjV+s5ONImXkGWKkxAy9fy1QfxzkJFhFl9EsuKU/L4xHouoiWfbX4zDmll9LY5T4cUl7IfjN03VEKlaACDXLU3e/3lKJDvgKwhqjUcM/pKMX71CieNuLvIJmx6VP8tqI1Dcr5shfk9AQe2GlknjHp00AWRRF2uz3imAYOsQJR31DkFQwdWbpsRUFWuCRxgv5ggOvrG7y6eUVvx7yaBFDYbHdYrpao+D6azRZqtRoPDEI3fZIfDS3BnkxnmE7nPPD10Go1aSM+9udZrpZ4+/Yt3r59i8fHR0RRhH6/j263g1oYUsfHFU71YWV0BIqnOzzPZSVGYzwZY7lcYr+PEFarGI6GmEwnSOIEr16/wtXlFZqtZpoGcMTmnadBJIv+HJd2L06SBJPpFPP5EtvtFvUGWctc9vFxHYetQo+YTmi5t+sq9Po91Gs1hGGIalhFxa8g0Rqb7Qbb3RYKtEGgWE/MhoISZBdhESNN53D5nod6rWamfdarNdqdNimyvm9YSxbSnAvAU7AiiZxFUYTFYoHtdoder4darUZKcUw715MCr3hfnya6HVq51GjQJnZKKT76Y49ov0e30+GpSjrygwLJIMkHybo2y9ypnVSrVbSaLXR7XbQ7bbRbLbRaTTQadVR5zxtPDi+VZdRG+OzSnzKgHrv32wL1TZkrJdIiv6U/TNvKarXCfD7HbDZHq9lEq9lCo9lIV+spkltKwuoMDOzfqaJ+Giy6rG9SpLJ08tIA6C+r+ByCkv/KQh7WgELmUTFjy6uCzYt0QM2gLF2U1IedVO56BpmVABRZBjAlBruyBMquMUxqrDBJtcqbkbnN5baTUvkLGdgDaRq0vF1a8Uh4bA4cC5yvTgXwONJnlaLt6V2XpiXmsznevX+Hf/z8Mz68f4/tbgvHdRHWapkui8puKQImZek86T4pCJaywL/Be9W4Lm1657q0PFOWQTuK9mex04XkewQic4Z/iqwyi8UCt7e3+Nvf/o5ff/0Vd3d3mM/nSJIEnuehWg3gKAcuz53LZoQOOxGC3ROKLZc3TKtU0Gy20Gl3UK/X4Lme2TFVKQeu62O73WO1WiHhs5conptxMKUyiA+Sxnq9xWq1xmw247d0IIkTrFZrTCZT3N/f4+27dxiNx9jv9wjDKm5ubtDr9RAEAQ1qmugkhbS8reVB7KOCOq4Hz/UARcu6F0vyJVkulnCUg063Q4pes2H2hpF2mWsyKUzfoIoEWT4mCgq7PW2Kt9lskWiNIKiiWg1pTxnHwXq9xmI+x2KxQK1ex+XFAK9fv6JdllukBIizteO42G42cD0XtVodnU6HnaBpiTZEhpkGxQqRo2g/nO12g/VqhclkTJvGJTEG/T4ajToqvm+mj+wukdJMQbkUGaOR8txuV1Ecw3FcY+2Rl4b0BYqEUvGiBM+lqVLw/kKOo1CtkmJUr9fherSRo0wXSn7gsqfIOQEbawDSozk0jNMwnTeWPpMto01r/t5vFaeVMdun2VJjX6NP6Rc0H9y7Wq+wmC8wm83QarVouX4YZnlskhN68nRxXAXLQV+uH4NFl/VNipMvhZlys+9/M+dmGZjsP3swY0LlmmkgPK7lG2oax0SwszsLKTOfQK59UTXkOXwaNCh+fqVSHlT0sjvl8QHhlW1xSaEz5U2FJy3H8SBlzpb9cKA8eDt95SCK6c3yw/sPePvuHe7ubjGfz+E4DoJqiGarBS20cznsvPIdJ1l8sj41DluOlPh+KEXNQVZbMGeUUvzd5kOKg/xlkGwKbYBSNDhOJhNaoTKb8VvSDPs9LTUPKhVaEeO4dNDleoPVaoXNdsNKCeWa0p3CUQ4830dYDfkwRhr8YzkAUTnw/QpWmw3m8zm2ux1arSaazSaCSsW8HVOdZHmZJBpRFGO+mNPUz2aN1WqF6XSK4WiE4eMQk+kYm/UGSim0Wy28fvUaPT6DKR2EbJ6USSDBLpnm/1zPg+978H0fy+USy8USi8WSV281cTG4QH/QR6US0HOsxFPW5T4+5ECfvUZgZVWlR1Eox8F2v8dmu8V6vUYQBAhrIeqNOpRS2O/22G6Jt77nod6oo9ftoipTQB4dJpokCbbbDVbLFSqsqLbbbSiHlKv5fI71mqbHaKn4lhyk1xtSrhYLzKZTjCcTTKdTRNEevu/jYjAgPx+ePrIHnLQubaSKYQYkuPydP1j58j0f1SpNUdkR8jWp2EdMId2jx3FdVPwKT8fReVU0eFodnglFUH2mCpCGHLwqyg63XUkzQ5X9XdKXa3nqfxsgXuSulFi2baT3rM9MGlQ/aZ9JCu1iscRsPsN8NkO73Uaz1UItrBFvTVKWTML+nr+f3ksplbhltMuLrfnFfVj6W6D5glHX+cUA30zxKSsSKw9EpPX2xVMYAMwbMUoGAsJXVHxsfKbiY/KUihFw/cvgZFd4HmX8yAzEuSDXJF7J409CynzoUXpjS9USxTvC0oAQYzad48PHj/jrX/+K8WiEOIlRrQYIggqqYYhWq03P5wnPIaWD90wRXvEeIw5PmSVxjH20x363w263xW5H+5FEUUSWkoQarpkSOxssf9wHyRtSENDOu+KYOx6PsV6v4LoeamENjlJYr9e4u7vD/f09JuMJYrYKeR45zjpiObHzMp/poEaboNF11/WxWq1pcN1saKqg2US1GqSbHZp2Rqk5rgvfq8B1Pex2O8xnM4zGI4xHvFHcZIzVis6RSqDheR56vR5ev35FlgxFb+NZxYd5eYCnIruitGikh1ZWqyG2W6mrLVrttvHvoCkYnh6iFADuoKUqbKQ/84JEkWU7BcdxUavVoJSDfRRhNB5DQSMIAtqvRAHgDSOn0ynW6zX2u605bkBrjX1ESsx0OsVoNMJ+v0Oj0aCdj+s1gDfre/vuLR4fHzCZTtmqM8FkMua9aoYYDiU8Yr1ewvM8dLs9DC4GCMOQaDE+LVLzOUuJKWYJ/wvtiixHnksrtFyzIST1v4bTRoOhKw6XW64rRb05KSaWz43IRWmg1xwJMjimS8IpUBq5lWGmF5Dni2mafVTKwu8EZeMEIb2e7/ukDcuj8/kMs9kMi+UC3U4XrVYLYS2kZ6nG+P9UPgqwydBUT3mU0qq4phX38dbYVYiek3dl/vuOFB/qtBNSeHgKQpbPOY6LOJbzP2zHzLwC9O0VH6MGnJVANnqhAvOwFGtBmZBQ51O8jnx+Qrl14OFTkPLS93JQ/uYX7/VB/hvr1Rq3t7d4++tbLFdr9Ht9/OlPf8Kf/vQnXFxcotVpI6hWTfPJM0VZDTSj+FjxFKijXS6XGI/HuH8gpWI6m7D1ZYr5jKwwsvpmvV4bhcVMO5zADzCJpiuWnVzDEJ1Ox4RGg+bC12yJ0VpjxkdE/Pzzz5hMJojjGJVKBbVaDQH7TAhKmnJOyWC+KxeO62G5XGM+X2C9XqHd6aDdbqEasOIjiqIoHFqbevI9H9WA9sTxXBeVSgVhLUSr2US32yWllDJHq9XC5cUFGk1Z2SGDU9pZngPFmxSK/JCPzx5QoOm8OME+inilEO2Cm8Q0vaZF8ZG0MvIg33NEyfEf/KIlVsIEwH6/x3g8huM4qIUh2p0WHU3AG9LFbNFZLuaYzWcYDh9xf3+Hh4d7DIdDTCYTbLcbVKtVXFxc4OLiAkFQARSw2+9p+m65wIaXv6/Xa7YA0SaUUbSH1gk8z0W71cTFxQDX19dot1q0qiqn9EAGeeG9BL5XQOa+dTlzjVqhBslaXn8VRUO+AyKTfBq8XR9lNBhIOfhZ2AocT81KecuUOCDHi9y1g88UCvybRrE/OyAE1nUl/ncuWaflmuxf5Xk0Lc1CQnkc5ffRn3StQKfUU9EIQN+LMi+vgdl4z6j4mEGoQKwuFMuiqwBSdOgNfbVaYblaYbvdwuPVA7aWV8iKGXI49achTz6ZQo7BPOzSt2MPH7lnbh2Jg+yU5cGBmS6lMW1yFZ5I54i8CiQ+ZWOndAj0Jq0cB0mS4O7uDrd3t5hOyVz66vVrvH71Gt1ej04pDmjfGWO/sMuYfyMRvrPio0B7key2W4wnEzw+PmI0Jv8Ix6XdcckngQYwcHzZg2W321Ej92iqJc3yOGOIRuraFSs+nuehUgnM0txarQ7lKOz3e8xn5EA8nU0xnUyx3mwQhiHanTb57TR4u35llb+EBDPQcxzFVgsoB8sl+eqsVrQ0udOhDd6g6UUj2kdYr1dItDZb6bvsX0Mriiqo1+totdu0uqbfQ7fbgef72Gy2iHgfnYuLARr1erpJnFF8npKLIpRihQxAHMeYTCfUB7g0rbPZbrBcruA4DlzXg+95ljMl8UP6B8lfERNJThXxKksb1VuSJIjiGJvNBvP5guqGDyBttkjpSy1DDjyXrINxEiGK9thtt9huN9jttkiSGK7roFYLzdRco1GnYZgVTaWIHtdzUeEVXH6Fjq8IwwC1Wg2NZgPtdguDfh+9Xg+tVgt+xYOy6x5g4RDFJ98iJV5OgIRRFtLBggcv82JnrmaCXEvvc/4sA3nkn6fA5zqZT3lW86of+kx/y3PS+iXIvdTSQ7Q9ofgABT78VkHFzNZY9nf2uuEz+xw6rkM7iIeh2SVbHtc8RZm2rQM8z2VXmntZffAmq8UnrHo+Aeq//df//bSYR5AdFNKBP+2Ps0QqHKaPFBwH+/0e796/x2I+h+f5+NOf/sQM5jc6cWrLJySdWwFl18pRFlPaDHWgFvnKKqh0D+wMlpgNsyRi2rbs/oq+Umedvjvl+SoX6T/FfBXe5nSBDM/z9+gaXbTjKZXuOmvHsTsE+aYUdzlarmbftDNc5K+u6yHRwGazxr/+279h+DiEUgr/9E9/wdX1NW+CRQTHvBoqo/gIPzgbvpPSxFOkgMZ6vcFkMsGHDx+wWCwAaDSbLVxdXaHZrMPl6Z04jhFFEfb7PVmA5uTXMhgM0B8M0O10ECfp7qs28r8VN0qtUz8JuU6HPtKqlslkjLdv3+Kv//5XcnaOyMLT7XZx8+oVri7pLaoSBHAdOp5Bpt+SmDbDs5GvS7Ka+tBa4ePHB7x9+yvG4xH++Kc/4Q8/vUa9UTO+J4vFAvP5HI1GHf3+gJ1qsz4Z9JkY2YjiCLd39/j5558xHo9xdXmB/+lf/hmDi4GxytJbYWIGJhiLEoFkrUQwFYzVJdHk9/TLr79guVgiCAJsNhtMpmSxa7c7ePP6Na5vrnnvIhEPnUpHRjmHcaQT+SVFJ+HpTo04TrDf77FcrjEcjTGekkLa7/Xx6tUr/PTTT6loayBOEjpiYTTCdDrBarXEfr8DAFSrVdTrdbTbLVxcXCAMa3Bdmj4TGrTWWC5X2O62iHmPHoFStIzf81z4noeg4sNlfxstMploPoCTCMooDFbfIU3HNJ6UQ9zvpEirJa8clvcl0gbtmJQVKcAq1UmPgGjWSKdJBUqRNRqgkTcthuRayLmknBr6qOIjaTxNaQHHkv1K0Mj6+OR/Z5BTZLNlTy2/9j3F/yUJvSC55iR2kkE5zoaypVVdRANfNLDrxXpByt0D13seeaVHgZp22fNyvwzu//Kf/+f/NRWezwkw34lgsczkA++AKlveS+DnPc9HHGssFgv89a9/w+OQfD963R48v0LPUwLZ5xU4HUnLRtm1Q2DazZEC8pv+XMVn0sCB6/vGiiFmcqHHHiiFHwAPUjr1RZG9bUhYKJ0M7/i7McVzMeV+yvPseUDHQDRwnhnhKn4XUeJHmB76tOst7auk0QhdivZ/UQqe72O72+L29g7v37+DUg6ub65xfXONRl12dqVGRFMxlJzwngXH0ANDA99jcra7PT5+/IC//e3vGI6GUI6DVruFi8sLdLs9NOoNBJUKKj5txFathqjVagirISpsydAJ+a+0mk0hAgDznX/kZZtj8KcoDIaDACsl5LdDS35llVcYhrgYDHB1fY1Bv48wDOHwMl1FiZUrCpCpoZQOh6eKkkRjxlN6Wid0ZlKng2oQIIr2mEzG+PjhA3bbLQ/SDYBl0dAub/w8+ChHQSc0fTiZjLHZrBCGIVkz6nUekPmFxKoTSjeL9KUlJ7MsX/vdHuPJGLPpDMpxaLO6Xg++52O73WGxmPOZZAlqYUjWYj7hmlKwkzdSJLVn2tVyucT7dx9w+/EW9/f3GD4M8fDwgOlshiRJ0Ol0cHV1iV6vhzAMyIHctG2Nil9h/50u+oMBLi8uaVPFy0sM+j20W23e0Zh4B1n1pqnj9z0PYSVALQxRD2uo1Wr8GaIaBAj8Cm98yAO/LBvmICUT2aQyZrmdclg4IM/kr6bNmj50JtB97gOsQDWe/klcqsvTQH2F+ZGGDAUiVHY4ASdFOylSEabtfz2Y9lWCQ/1EHuV9f/5Za/pI84sl7+4tvlvasCBtE6b+TTLS2iX9NJ803in1mva12RgiITkoqx+wwMscPi/QG5pr9lGBGQjzA7KEkmuKTPNaK2w2WzwOxxhPpthHESpBFa5Phw8mWiPRfLBbaVqHkKfheBAjqQRAUfmgoLQD5bhItMzTL7FYrrHd7ajc3GDTATEXzDUHSrlQvGsume5pekROgZYggxnF45UnJo88D+R3OaSDsUWC+lARnJQHpKCmK6NS2hWgUwuHiJ2WtCgjaFZ6oGgVy2QyxYePH7Db7VGv1zG4oNUpjusg5hUbtJcHJWS4rulICuK/6eqtlVxEmxwncHd/j9F4jKBaxdX1Fd68+Qn9/gDVsGqUVFnF4/Lp2I16A+1WG2FQRZJo7Lfk+Ewcseozx7unoFmRS508NeI4wn6/Q1it0qZ/WmO5WmGzWSOOY3OydEZ5eqqDVWndAmSlSeIIOolpGsX34ToK290WQ94ZeTqdwPc9PhHcqk+zVDj11+EseBNFBZqN0pajaarKMAWWXNh3svKSgaKLmh2E5/M5lFJo1GkZeKfTxdX1FX568wbtdgdxHGM8GuPh8QFLXrZPLwjWwJnbW0JxG3AU8Tja0/ELq9UK6xX52kADjXodFxcDvH51g36PNuEjhSOBTmIKWsN1HVSDgOWng26ni26ng3azhXqtTk7CjsO+utybaA2VaDga8JSC77qoeDRtV3Fd+K4H3/HgOy75FIHnGYziRG3EbgnULg63fWFHJqStuRBEsTIBMl1E1rynglhY7Lo+Hjg+V1km8P1sfNu+dSTkLFqHUXjyhPCN8OxZU3mor8kGzdflL0mSTKCXfOoDspsRpqMn0t7FGlFFUvOSdyxIWlkUqT7OImr5nwlqROngSIPCoVAEdUKkTSaaNkh7fHzEdrtDtVpFt9ulM1hUdrWN9fUZYNNn00nXNVtnEqUQA4gSjflihYfHEd5/vMXdwwNm8wV2UQwNRadVwwEgnxRISaFDCwFSWiTufh9js9lju40QxRpJopBoRZ8ctFaWYiPpEr3l3BUIs/J1IXRYSpq1JFxodBxWbh1ShESZgbxbGmlLr8NSzJRysFqtMRqP8PDwCNfz0O500O304PsVAEAcJ7SvSar3mJIR9fSLFDLJh+SHTOHkjPr4+IjpdAqlgMvLS7x+/RpX19dmd984SRDLFEdM3xOt6aTuIIDn+9BaY7ffY7ffs+WDuCX5HWM20W7LaWpZS5LELFNeLpeoNxpot1rwfR/z+Qyj0RjT6RT73Z4UwCcaMECMogFZLhC/aOPEHeI4QqXiw3UVdrsdxqMR7u5uMR6NoJMEzUYTtbBm6VUyxWWbsWXwAxRoDyRRvkk5Ix6yxEhClJqYwc9AnMTY7/ZYrzfwKz4ajQZqtTqqQcA+Ya/w+vUrNBsNqvOHR8xmU+y2O1aCKR1SgEylGG4qyCAue85UUK/X0GzW0Wo10O93cXNzhTdvXuHq6hKNZh2e55CygwQaCRIdAzqG1nQNSsOV/aE4OI4ywzNNSckWCvI9HTgSTcpUksRIkogCp0/3OI5OrLOn7CDpnsFsYQkHq5qfCacnJlzKgvsSqw8lRfZIA3zB2ci8YOWR68vsQMpP7tmjVXP05lcDT3V9Jrix0JJbGuxo7wcppAhqUWBlYHS4I93tdnh8fMSH9++hlMLV1RVev3mDWi3kvov8HejZTFJHUMy3CJvW4jXqQB0olyw9y/UGv/z6Fn//xz/w69u3WCyW0FCoBtXMuUb5QPJhpQdS5ra7HR4fh3h8HGI6W0CDrFvRPsZ2t8d+HyHax4ii2JjajVIhigGbuosQoUxpkCAKp8POvjRoWJYdSZOVF3pLtvii8q9TopSkypPiNMYTOvzx8fERl5eXeHXzCr1+jzr0xOpxbb2GlQw5xFTL7q5meTeV2HEdRNEe0+kUv/7yK/b7Pfr9Pv7ln/8F7U4Hnuci0QniKOa3lPTsJen3AWC332EymWDDG841m01eEl/G1zKIkmZdsTami+MYDw8PuL+/x3w+x+XFBdqdNiqVChbzBXa7HZIkQa1eI/8Ol/dHkemjEthXTV5wMJ3O8PDwyP4wLfgVH6vlEu/evcV4MoajHAwGfVzf3KBWq0kKJZ2gKC6a75PvzWw2w3q9gu956HQ7tAScfazoeUojlZZyGJlV/F0Bu90Oy+UK8xkfh9FsIgyrSPjk50qFppc830ccx5hOp9DQ8P0KHTEhpnWrHEacRBdKEriug0pAz/R6dDRCv9/D4OICvX4XjWYTvk8rVmT62hHZZMmhr3RshUiTKEekINmKiR2oXjmBNI3M8m2dWngKaeRQ2Pr/NGhWWOWp0s1XYTHwZKgzoh9yPhaLXVk4EWdEPR9n0vIdQV7GTkN5Oal/z189DGp/1rhwzsOMc56hsaeIZ1F8FK+ugAamszmGj0NMJ1O4Hh1qdwzUUdPAmCQxhsMhHh8esVgs0O/3cX1zjV6vS9aghN4sYTqLU1FeaSnkXj6O/RwdpKmhsN5scHt3j1/fvcdisURYr6FWq6NebyAMa7S9v+WLxEOz9Z2C43iIE435YoGff/4ZH2/vMJnOsY8iaA3stnvq/OcLLBZLLJe01HWxXGC9pikRssbQrr8o7fJMd1bggyg0SUIOnev1BlCkBMkApFS65Hm9WmO+mGO73cHjzeXM+GbYxHmw8kNzwmTJu/34EcPhI5I4xk8//QGD/gDVMDSKCDRo4OA06RolTsJuGUmtQRKgqZfFYoGPHz7i4fEB1TDEzc0NLi4uaHdb7uBlQDeKjOyRw7+32w2GoyF2ux1830e706bziNgZurwZ2SgqPuDVikmSmN2cl8slqtUqri6v0O120WjQYL3b7bDebJAkCSoVWlJeCfjE8bKEAR7kaciVHYG32y3ev/+Ah4cHrFa08d9iMWcn3CnCsIrBgJZG1+t1KF6dpI2SY5XVylp4Tjs5r7DerKEBtJpNhLWQZeLTFB8lWgmAzYY2c9xHe7RaLdQbdXiyOSLHdR1aZh9UA3ieR35aIflrZRRpyUdpboFEmwa9PDi8As+v8LlYlQodm+G6gIN0wzzue7KqMtLvUmZRVkRaFV2znxNp1kiMIkY3uG+TYKYKDlW+hZR9Z8EMQBzMX26AstvbqTg5+qGIWl608uEMnBn9PHwCPV8YhXo7EM5DeTkPyskBlGVLzxnxeyKUJPAJeKapLrIGaN5z4+7+Hn//xz9wd3eP5XLF/QEzLvdJHhy0cmW322M8plOBg2oVF5eX6HS68D0/dejjLkC+l+NAI5EJ49x9SspmaGZi2fQ5SilE0Q6z+Rwfbm+xXK1RCUPcvHqNy6sbNFttuK7P9KXPStdFNZf6pCjlYLvdYTye4u7+AfPFClEcI9F0xtJqveGwxWq9xXqzwWazw2KxxngyxcPDkKbXdhGUcjmfdBC0SM/BliRgtVqbOvvw4QPtEBvHUGw90JqczW9vb/HLL7/i/uEe282WhZDT4WRNugB12g4NLHEUY75YYLfdo9Fsod1qo1oNWZllPtnBJpcHY3vQI/7Rp+O4tNPwfIGHx0fEcYJGo4Fer2d8V0w+3FClvqXhkmKdYLfbYbvdIk7S8kvDZEry42kG9oAvUGyp2u/3mEwmvMoM6Pf7aLPfymAwwKvXr9HudJAkCR7u7zEcjrBYLmmPmgxfy0GlUoijCMvlEo+PDxiPx1gsFhiNyGF3Mh1DKYVut4uLywt0Om24+TOUSvaGAdJBXykgCCqo1WsIwyriOMJuv0UU7dNOzDz3VKB4GvTGL46RUbRHHMfkfB7SBpCSP03BEY3VkDYVvOEXpLBaTVc88bSStAaSK5ElCmKml7p2XTrShFalkC9PkkQ0naUTaPDUVn6qSXhmeCiKV/pp/BuMjIgan/+dDUWeHQh2ntDM2yfAmRzoGosBMDy1/+ROaVC5kL/PtNNt9lWSkGZ7Amw6XvAUMorEUSYfvVmEsdzZdWx3XyX1fzKeintaus+i+Gg+LNFsdT9f4Oeff8Hf/vp3fPx4S50LUGhFCnwYJa9AWa82mE5n2EcROu0OBoMLenvT5IeRV3bKBiBq+9KJZzs5ww4Nkz/YtA+IEKSVbNLiSnNdB5vNBo+jET7c3qFSreHV65/wp7/8M/74pz/j4uIK1TAEzCDN6Ul+ZhrJhXI8KOVgPl9iOBwh0QrtTg9X168wGFwiCGrwvAqCag31RhONRgv1ehP1ehOVoIr9PsbH23sMh2Os1hsoxyXlk6XL5kEeNDDx6KQUxtMJ/v2vf8V//+//Hf/n/+f/xN///ndstxszEOz3e3z48AH/1//4v/Bv//avtER8uUCSJFbxaGCWhiR8lo0ot7z1vwb4bKkGXM9DbDaeEzEV/rPSwavc0uGLosg9R7nwPB/bzRaTyRSj4QgVv4J2q41Wqw3HIUuL7T8E4Y/k6NAbfxTTydzr9Ro60cZi6Tq5LfeR8jUra6mgkQKQKlVaa6zXazw8PGC32yEMQwwGAzT5PKewWsX11RVev3qFbreD1WqF+7s73N3dYbFYIInj0u4nlV2ZLnYQxzGWyyVvzDjFdDrBw8M9VnxY6dX1FV6/fo1Bv89KDzvr8h48msuXcpyZZgYtoBJU0GjUUa/XAS2KSsS7q9vNSHjFioE1AJLISJqphURrcv7WOkEY0k7enuuwjwzF1zpBnESIY9orp9PpoNftot6gvYRIqDRPE4lfDU1v0gIJqkvy9YopRBHt7B3tySnctvQgAZStENrTUWINkj1oqNyk0OSmp4QXHNehAhs6jXJUCNQKngqU/umheOWJYGQ8F6Clwk9Ats2YNKmXzPyZPrQUeep+ezBtMc+vZwHxVbGVxu6zssFSkHIop4/vGFrlhYauf14oIp93RiwPPPMsU10AWTJk0zPf95EkCba7HXZbOnCyGgTw/PTMFyGHBmCF1XKJX9++xXK5Qq1Ww/X1DdqtNlw+76ascRXrIh00sw2m2HgU0yAMM/4toEEEfA+8hI/eAh08Dh9xd/+AyWyBm9dvcPPqhs7eUWkzheYGbBNoNGvJR2G13mA6mWK12aDWoE3iGo0mqtUQ9XqdTtlutenAw0YDjWYTrVYTtXodjkuHYNLGcz6fa8U8UuDvQgd9K/CFB2VwWfcRTXctlysz1bPZbHB3d4+PHz9gv4/QbrXw6tVrPpCStikHlz1ld9pgHMcxflsP9w9QULi4oKXBnufRvjTyPNOb/qYyZIYS05jomlh+JpMJ7u/v8Tgcotfr4+r6Cr1uj1aJJTzgyQGeoENAlaJdih3HwX6/w/DxEXf391guF6jX6+h2abM+pVgWcvJH13JQ1p4joA7DdV0sl0sMh0Pc398jDEP0ej0M+gNU/ArLogaUgut5CPhQSDqgcosojhBWQ/aby2fHvKZfgAKiKMZmkypZvu+j2+3g+oYUnlevX6HZIN8l8Ple4kidhZRZZIjEWPH0oNYJkiTGdrvhbQGqqNdrXEesyFi0FdsrgztWxRtWxhEdrBrHES3prlbhuKlVyoDrkv9B86aMdjwjWaLs87XiH6WR1hwrgEjS/J4AtXeqzbSHS/exUcI/k4c8l4bsHRtF+TuIzCBzGBaFuTtHYCm/p+BgyrkpPQWR4+wT6e98SqeVESh59LlwQtafjS+Yx8H2qKkvyiL/+xi47RmZtq9/boEOyUM50v4ni5ziYxNVFj0PbeIpyFb3tDTW8zzstjQ9s91uUQvpMEXf861syOIT7SNMZzN8+PABFZ82cru4vEQQBFDgOfYcwxS1lhwOMUXl7vF3o42y066ifTZIGaApMMW+BEop7KM97u7uMByNAeXi9ZufMOj3EVQCGsCThFK2dmRVwlW2jMiOuvuYVh+NJnTCdafbQbvdNic6V4OqObdKDmv0Kz4qQQWeR+c+jcdjRFEMv1JBq92i/KRoUlq+QHRR2U1HxwM6+UoECIIAcZRgs9lgsVhCgfxmhsMhlsslmo0mbl7d4Pr6GmFYMzyT/FJ9hDswHgg2GzqHajqbIQgC3NzcoNlsmYM1RUkCd3wiqjJ4SFpSgyZD9s9QSmEyHuPx8QHTyRQ3N9e4uKBNAI0js6ZhTMkzYpnQtBJsNBri7v4O0+kEjuuix7vk1ut1tg7wAMjplOoJACliQr9RABXG4zEeHx+xWq0wGAzY2tOkwd5S5uR4iKAamMHbcVw0Wy3jq3QIxBIqlE6AfRShGgTodNq4vr7GzfU1BhcDNBtkbYNZmhpz3WU4bIF4Jt9hlY1WLjmo1+sIuY2LkiiPHOp8bIicanbw3e93UAqo1WrwfZ/P5MopIaIwUG5seSGLWxpFiEi/q4PeuyAumtv0XXGpjwcF8IYLGRQ6f7loZZNJ6RlwVjLn5ntA8A/g1JQVyhWfcjANCjkFqmxMOIOIT0DaD3zBTL4QbIrzEiht1lw72ma+JgyF/GnLo00xBcVlMb951bE11SUJ5D8PIRtPg3aVdRwHzWYTf/jjH/Hq9WuEYRUP97SSZ7lc0QCmlPFxcZSL9XqD+WyO3XaPZrOFXq+Peo1OQc53ZJ8N6pOJETLQKoV9FGG72WG729GyXKbT4WXcWgPLxRLz+RxxFKPf66PVaKHiB0jiBHFES38Vr5SivGiQpGzpz3HJF2qz2eDj3UeMRo+Ioh1qtRCtVgOtZhONRh2VwIdStLNsYva34X0TFKAcF1Au4kRjH0W07NoqIozwWqu4rNoSxHEMz/fR6/XxL//yP+Gf//lf0B9cYMkWuF9+/hXD4Qiu42JwcYE//OGPGAwu4PsVxLEoFZS+7LGkpZ0ohUST38xiuQSgEFZrrPS45FTq2fsRZQOkM7QUHDlPLMNXnfBZbrTip1oNUan4JODsuKwcOv/NPhJFa2C722E8neDt+/e4f3jAZrtFs9lCp9tFvdEAWDmUIBaFMqEkmrO/pQ5l+XoQBObcLnH8T3SCJCa/FcdxENZquL66xuvXb9jy2SLH3kzqJeCK8DwfzVYTf/7TH/Ef/uN/wH/8j/8B//Iv/4w3b96g0+6wA3SCJI4pWFOAZVCZ/5gPSQLXpVVvb968weXlJZ1DZiuJ8hhIFo7Cyl8phSCoGEUqVXqE7xQoSdEsWBnldLhlyw/zcVLQMnVkGU+eGQoHBukXlEDTNKMJtq9QLt4LToKIXl72Yen95tp3hbQvlrGHcIjStHT0wkOfjp2AneAhZDO13qb5TS3mTb2CSgVXV5e4ub5BWKvh8fERHz9+JMUhIWdNDWC/jzAajTAajQClUK/XUavXoRza0C42S0TLYBc2W13lbw7U2WjIDro+lONgNpvhb3/7O/6///qv+OWXX7FaraGhzOaCUA7iOMF0NsNmvYXn+3z0QRMVnxQUl1e2ua5H/jacPykcUkE0AO+jCJPpFA8Pj9hstwiqVTQbTVT8CrROEO33xlKRKjy8v4cZgHkQ5jpJRAmR5l/wVMxB0QDjMq0KgO9XcHV9hT/+8Y+4vLqmQxM3G4RhDZdX1+xzVSfaEqoT2ok27YRSnwe2egGIE3Jc9/0Kwpqcw0V+XUnCZUiJMsoxKZ00JQWQL46ylTlLKTQyDI39bkf74CQxHNeF59KycHJc9YxsLZYL3N7d4h8//wN3d7eIogjNFu3wLAfv2auDjrWLPIRmzUdv7Pfk+Ev70ZAVQ6omlRGu0ySBchy0+FDKi8sL+J5XtHhkQFxM2FfEcx00mw30ez30+j1Uq1VSQvc7JHGMOKYT6cG00suy1ERJ0NkpGzmo0HUcVCoV+B4psuRYLPSksKd+ioHKD15WLWmGYQDPk20L0glP+zmw4qtZWaFIVhzrXKdivodDOl1FzshPBlPGLG0pOfL2kaYrcU4LZ+DM6GfhS6ZdgvOzO/+JF5yC5+JryVh0FspekNN7+XCo9ZQ4N3MXkVOEJBSRNmgZgKM4QpwkqNVq6F9c4ObVDRKtMRqPcHd3j/VmY9Jab9aYLxbY7nZoNBoI6/V0SSzTUQa5R0FZATSQs6WGzkjyUt8axU6xrgsAWG+2+Hh7h7u7e4zHE6zWG+yjBBoONDsi0w7NERbLNXZRBNfz0Wg24cngBXJ8dnhLf8ehk7Edx6PVVpo2LFSOizgBlssVhsMRZrMZlHLRaLTg+wHFTXgFEq82kTKmu1XT1Mx2vcJmvYJOIjgO4LpmX2mu6ZQfqSAw71gaFIhWpTie1qhWq2g0G6jV6QiARGtEcUzOwYU6SfcdITlgR1Lzdk5x4zjBbh+ZZ7db2sH54XGI+/tH3D884uHhEQ8PD3h4eMDjw4M5WHSxpCXNULQEXYm1R+SRiSHfMvIHu7+/x8ePHzF8HGK72bDDaoTtdofZdIb7+3u8ffcWv779FR9vP1I9OA7anTYuLy7Q6XR4NRhZxFBoTuWBeJpCGqZY7QDQLr4se1THLMscEg3EWiNOYjiOC79SQaVSgXJF6xAn24QPdJQgiok2DrWu58LzXdoLSBHzNW80SO2L/oxCozUcra3tNSVQmkon5rRt2nk4oeldXsWkjIMyFUp4Qb9FSbBf2O3rIlREj+fSSdCUBtNjKV6GLs47XT5uc1MTbYg5EN8Ohzi1KPDzRV4cCvn64DrR1vcCfdJOjoVT4mRDWmfHYdfP6eE0CF8OQSxy8ieR86WR2KfjnLjHkKWgQJiWi+egkICFokQ9zcVPh+ReoEiZ/7JUKtB2EGJgtVCoy4M0y/V8+c4Jdjr8q9gxACJS8gKKdLZOA3D/8/9sn85ennAGGqkFRokpWIqroKHNm7znedxxB5gt5lit6FiHWq0Ov0J7k4zHY4zHYyRaY3BxgW63i0qlQm+uhpK8kNiwGCK0yHEEbC3QGohieosmhYisM5vdFqPhCD//8jM22y0qlQDtdhftThd+JYDW5LeUaI3Veo37+zusVmv4QYDrm1fko5LQ27OxPsQx8Uhr4rSibk85LlzPZwVwjPcfPmA4HNHBlDev0Wy0SEHjJbZp8ZTRTxVP3ayWC4yGj7i7u0XF99BuNdHv92kKR9kSLG/LwqG0Xg2PRIo5y0TT/izD0ZiVFZ5u5EE7rFbprCl+SCcxlEJG2QEoK4f3Xlou1vh4ewsohSAIEARVjCdTzGZzzHkKaLla0udijuWSrq1Wa0TMT6ozl3grWxuw1crhlUzr1RrTyRSLxYIsG6xsbLdbrFYrzOdzDEcjPDzc4/7+FpPpGJvtxqwKury8xMXFBRr1OhxeiaWThBVKUlIUFbsU1ABZHpmvovhMp1PydavVyFJYqZDVzl6taHoU2aSRvlMHZA+adk2mkJaQdkxkTjIvLnLZKBk20gFTipEJ4OfYYiH1T4pHzIoHlVfogHxaCmoGUoeART2VkfJlc5gFU0brd74+hL6UXzRVIpaZjPaVD9YzlEZanqdDXkmQNLJB0peaPR4+Hfl8TSAicjFPRyG9knAU+chMFD1XfJq4UHjgQCjBgcuHkeO7pnGtHJL48UykjZfz3k7jibJ8DRzNmm6KpaVM6SiW0Ua+jJ8SisgrXwpZQsw3BQA6r/iYO6WguhMBSBumyUh+WRk6joNqGELzpmrT6cz4Wez3e7x79w77/R7NZhPXNzeohlUo0L4v0okWBLEUVFB5y5YBaLffYbXaYLlcwq9UaHkyrxAZPg7x/sN7DB9H6HZ7ePPmDV69foOgWqMpLpDlSGvyyfnw8QOiKEY1rKHd7mK73WC1XGK1mGO1XGC1XGG9XGG72WC72WK/20MpUrJ8nxTAJNE0zXX/gO12i163R464jSYUKxkKPIA4pDDJ4K54gBelZzQaotlsoNfrotvtZHxXpB6p88/WKvnLyBQSWYgUAOU6mM5muLu/x/3dPQJ2slaKrkdRBNd1Ua/XaYM3k5/sTmtlpAHF01mr1Rr3d/dwXRcVvwLHdTGbzrDb7aEcUgzMtCkvL97vd9hsNlgulliuVtjvdvArfCgs17EGDegKtJOv67nQ0OyLtcBoNMLD4yPu7+5xe3dvNvSbzaZcFgeNegP9wQCvX79Gv9dDLQzJAV2gecrOEnsj61qbDlsBqZbACiRdorpbLpbYbrdwHAeNRgMV3zf0c0TOgH9yZ6kT4kl6N1ufkrcd0ljyjYIGm5dKQM8JLVZCcp+TyeeVsQJY5TeXwHxiPsozdlpZCK1PWzro2ZT/RbosZY7LVszvEE6PeS4oZUt5/Nqwilbk2/Hw5SAa8Dm55Kk7FM5MFrDq5amSy71jcVIUlQI7/fzN/O/vAVma7LH+e4fhtCpYfJ6CdJzyNgrAVnrYwgEo3hmXhFkpcizVWpuVXvvdHpvtFrPpFGEYostbxXsunVytLSGRTuspaM0DjkwxaI3pdIrb21v8/MuvUErB92lnVhqM7zAcjlAJAlxdXuFicIlGqw3AMd2uww7W280Wd/d3dIAkD76r5Qqb1RLbzRq7zQab1Rrr1QqbNX2u12usVxtstlskOmEfHo35bI7h8BGL+QLNRh3dTgfNeoOP/CCIPwt4/6AkSbBZrzEcPuDu7g7z2QwKwMXlBfr9HhqNBlUPs0qBphW4CjIgbZh/aNpkUCmFOE7wOBxiPB5jv9vj4oIsIK1WC9vtFtvtDtvNGkrB7Nxs0jZvNKx88lQj+NDZ4fARcRyjWg1wcUE+NO1OG+1WC61WE81mA81GA81GE61mE7VaDZ7vY89Lm+fzObTW8FzazVg5DskHT9m4fLhrENAhpGSNo00Dd/uIfH7iBL7vo1avocsWnqura1wMLtITtPk8OAoW7zR46tDqEA0bhelFOVWs/ANAUKnQCdz1OjzXI5aVKhM2ZMBOB/vUypp/qphCgSKd1pXA7rvoDhNmFIbUgoFMDjal2TzlF1GZ0p7CpsGmW64XKC/AftlKcfg5S0U9AWVp/0bwXRbpXH6fGg8Ut6RtnoanZOY8urN6Qv7Z09L49hA6rQUGPwDsmjxT8bFgysrJyQSa4rdc2QuH+1nPT51KJ5MJ1us19ryCqtfrot/vo1FvGMkgTbKswzwODZIuBXpjni8WuL+/x8+//EKKj+cjqASYTKd4fHzEer1Gvz/AxcUlWq02fL9CU3XcTsgKk2C72eL+7h5RRCvXPJ7mUlrDs89E5rf0JEmw2+2xXC6x3mwQJwl8z4fjuthstpjP5phNp/A8F2FQpX1aeAWSlgbCPlO73Z523x2PcHv7EdPJFEmcoNPp4Or6Cu12O/WL4rdr4VuZXCqwxYeHJId33ZYN9pbLJcKwhpvrG1wMSPGJ45iWuc/n2O22cBxFTsOeR9NlilZ1KfahUgpwFG2qGO1o6f16s4bve7i4uECv10O71UKtVkO9XkOtRqFep03x6OiPCpI4xnKxxHg8QRInCGs1NFtNI19gq4mjHPiej7BWQ7Ua8sou2lahUqmgGoZoNVvodnvoD/rkNHwx4OMiGvA9WUVHU7WkUIkcEgM17M0oVdqJcfltGLWEV6T5nodqNUQYVllhZDlnC5LkUho4bem76XohViYoWJY8Docg6VPR0ikYUyxLAbRfQtJ001yYPWne/KAoP/lnDbWaaTYDVBr3EAwPDTdSmc9+p2B/exoS79T4PxC+yyKdy+987R4L8vG0TBVhpVGK8+hO+xM7/nlpfE+w+8fvHTaln674QFKxK5IsPvLWb785O8qBx5sbTiYTLBdL7PY7tFotc16R53nk26BZk7QG8FOgFJ2JBH5U8eC43mxwf3+P1WqNhE/hluX1vu/j5voGrXaHz0Qi51J6KabppiTRdD7Xx1tE+wiVSoBev49ms4VWgywVrWYLrVaL9uJpNFCpBACAxXKJ1XrNp3wrhGHImzLGGI+GWC2X2G62qPg+PM+jjRIVKVtxHGO73eL+4R4fPn7Ah48fMByNkMQxWs0GfvrpJ1xcDFCr0eGNsBQfMygYv4UUindFFj8Wx3WRxLHZayZJNK6vrjAYDNBoNBBUA9QbDVoJxVNI6/UaSRzTIZ6uR3zijSA1KEtREJNYYz6bYTqb0KZ09Toa9QaCoArXc9nqRLs8ex454/q+j1qtBtdxsV6vqdxJgna7jV63SxZFy3dF8UaBQSVAvV5Hp91Gr9dDt0vHQVxdXuHNm59wfX2Ny8sLOt4gZAfuhJ20+dDSlEuk3OS7pazSw5JPom++0Ae1Ca01HMdFxfdRqdA+N4mmpffZlA+AlYFs7KeflXYogVAiD9TY+Ef2elbZsp87nC/y1OUsTEVQ6gDzECjQWAZb8cmi7Nmn+ZXFufF/IHyXRTqX36nMnAQSxPzVE3BKPk/HybbBMpSl8Sn0flmkFu9jOCXO14fN4YOKz8ECKti9PFUorN5foilYfiQ0ILoO+fbM5nNEUQTHcdFo1NFut1Gv1eFXfOPrAd4XRpSf05gp75UU13Ud2jTRr8B1PcznC3acXWGz3sD3PLR5yiOoBKwo0QCutT1gKGy3O3z8+AGe66LT6+H1Tz+h0aApmTCsolKpoMKOuxU/QDUMEVSrcBwX+z3tsxPHCVqtFqoh7cK73++xWq8wn86wmM8xHo3w8PiA27tb3N5+xIfbj/j48SPuH+4xnk6w3mzg+x66nTYuLy5xdXWBalDhfU4sPsmgS6wHRHnk/8z7MbPUUQr7PW2ouNlu6fDMqyvU6w3eLZgUpUqlglothKNoSf5qvcZqteajHWijRTpwlmtDVtIxL+fzORaLBRaLBVxWboKgwivhSFnQPPWmtcZ+t8f93T0eHh6wWCzRaDQw6A/Qbre4rnlCUnN5NfsLsbnO5c0AwzBEGIaoBAFNpdI5AdZ2DKnMpX4wmsqtQDLIzDKib3gtckmf6a+0LWTAU3NUD1InRYjVxb4Cjm61ssw3OwDShu3AcbkMaVn4emZqy1Bo3UOOpiLxWfrouadha5f5ch9GqvjYKHvWJJ67fgyf8szpkD4zr5weCs+Kz0lOEe1f6u90nBPXbqfngl9kDv1JP/sknop06P6n0v0tcKgM3weURWG54iO8zvO8pKFyS7A6UUpaIV1hlGhNjrBKIY5jjEe0W7HEl6MuamENkG6aO20l84h5WkqQLlejKRexMnmejyCo0innHCqVCtrtNgb9ATqdLm0syJYes6hKKaMM7XY73H68heM4aLbauL5+hUo1gOf5xoeDls/Tb9+naRblOJgv6DT1KI7R7XZRq9d5wKfl0rvtDpvNGqvlEtP5DLP5DLPFHIvFHKv1ClEUw/Vc1Op19HpdDPp99HtdNBsNoyRQqdNB1dSDmbpg5YDvyRNUPvFhuodOEjQbDVxeXsJnpYdWR5EDcS2kKSTXcQFeMddstfg6n9aO1OIEUL27rovNeo3VcoXJZII4ovPXFIA4iRHzWUnbHZ3ptZjNMRqO8PHDLebzGRzHNVNktVqNiycyQn/EBnF4pvLK3kquS9NuBLFEpvtQGQFj+gFwqpSmPXWSwnpOoFIVIVMP/JnWhdwqcfIB5ZkHnS6eu5b7tK+n1qvs9bJgl8WQpehXmjYrRiZZlq3caqhsKNJWBMd4OmIGh8pejtNipTgv9bNxhgLx7PiMJBXSvv55w2cQ9RQ+K2kllXU4lLSzLEzE3zCkfN9vOe1aKFd8DuEEAVVgpUi6PvZ58TwPcRxhuVji4XGIOE6goLBYLrHZbACApzDYzyW/nP14tikUWTCMD4imDdGq1ZAsLMsVZrM5Op0OBhcD9Pp9hGEIgI6roGXE6eBFy71J8Xl4fECcxKgEAfqDPk3xQCPa7xDH6X42GuScDIcG4/FkjOVyiQQavX4PtTrtzFwNqwjCANUK+bJEvANzlETQCnBcF0EQoNlqYXB5iZubV7i5uUG300E9rPJ0D+Vp1wsXwYKmBfFcFoojAzApNqvVCvf39/ArPh0Q2+9D8zlOdJZTAtdxEFSraLVaaLbICTmsVtFut1Gtpo7BJlet2dpDU1hKAftoh8l4jOlsisViTgrhnk5E32zWWMzneHx8xO3HW7x/9x7D4RBQQL/Xw+s3r9FqtcxxC5n+JiMiMuCygsc7XsvScVJ4xH09KdkrhWCkIKNwyP0DnR2/HfIPE006d6kBkevDFpHiddsik6WzrF1m4xxHqtSllAvh1oetIJ4AnUnv+WGn+fzpfznKNfLt8yvjW+Z9EIo4o55QMj4lnCGzRZhEDkLJf4fCCWl8C9h99fPALuNzp/35sGvh2RUfk7yYB/k8J8dxaHB9eMB4PEaVB0xAY7vZIIoiUgSCAK7n0b44sjGaOoePFNF+U1IO7d67Xm+wXvNeQvU6n8EFVEOaviGn3JyxnwerKNpjMp1guyUlTfZicR2FJInYMsWr2RQpPonW2Gw3eHh8wHK1guu5uLi8RK1eg+s5SJDAr/hoNpvodbu4vLjAxdUlLni10fXNDW5evcLNzStcXF6g0+2gXqvBd104Dp2TJAM5MoJsD4r2plPZBkgdMCk+2/0Oi/kMrVYLnTatcLKVI/AS7SSOoRxyEq+GVTpew/eheJpKfI1okOQjI/jk8CAIUA0C3mgwxnq9xnQywXgyxsMDrVa7v7vD8PER0+kU69UatVqIi4sLvH7zGr1+D5UgMPKgWfdRTGNaTik5KyyaloSTJUgGb9pUjiPIQwaSjCg/ls74BFhurG+G9SZvCXSN9pfJBpLAfLBzsNIuIU2myopplAU7PXt6mVKSkOaRZQY5aNMlm45D358TXyrdNOUvlEOOV18V3yzjY/jSRBXb+GnIyno5eKw79FcydSnhtwf1Gbz+srBr8pkVH9HWqcIlK3lmMZ9jOBwiimJ0uz0MBn34ns9LpbfYR5E5hNNz2ekVOJmRCnZUokGceJVSGI5GWCyWSJIElUoF+2iP3W6HoEorbeg8JPF9EbEFoMgZdbfbYrFcYL3ZQCkFv+LD9112SJbBlxyi93GMxWqJx9EQw+EQ+/0O1bCK/qCPIKwCCkhA/iyVSgW1ahXNRh3NZguNVgutdgutdhvNZhP1Rh2VoArXpdO5Fe8oC+Mvkim4gdSUYuUtU/X81X5eKUUrrcKQ0rPqmo7HSPfqSTeCpH2OyLoDook/oZmLvFGi4zrwfc/42wQB1bNCapVxFPGjXquh3W7j6pIUwV63h2pIS9Vpd+iUciNtGdEkRYjJTePYA74CTx8Vgz3YZ5LN8LuM56ncPB0kfVv5kHTyacvuxvklpFnqUogCk7dmlYRMekUadCG3lFLb+dl8lpBUcuk7x1P8/TyoF8XnAPJy/62RyvpBSJSDIfNGlkFeEcqHFzwf7JosVXy0+IXkKxDFCpTK0fJd8YDjODRtBMBxabPC2WyGyWSKgPdyGfT7CKpV7Hc7rNYrzKYTOp3a9xGGoXFCZU3kSUhXLt+Vot1+FRSiKMLHDx+xXq3hVyoIKgE2mw1WqxWtBgoCBH6FDxGlMknZRG1wHIX5fIbZbIr1agXXVfBcBxXf5/Oi6LDJOI6xWCzwOBzh9vYWy9UKnuuh1W6bnamJSPJxcQH4rovAryAI6GTuarWKoOLTGUg8pZXEeyTxnrbAV3R+l1LkY5EOTnbDkQ5WuGKVi+9ptqh5rodaGKJWC+G5Ljufp+dkaT4AFPyM5jOlxJJC9cTZMMjow8Kj6ILnuWg0Gmg2Gzxl1kAYVlELQzTqNbRaLVz0+7i8vMTN9RUuLi/QbrdQCSo07ajTqSmF7F5FRkwBOmqAr9PUZzrYyNbrWUfarPJBIVWeslaQ5wT7yOQLUFC6KG+iSa6md8tR5uVThEKxXcsdzjHzaeebf0rzRft6Ps6PgVN5/Cmgl4wvkfJJ+GYZ/yjI1/3nMizbZl7wbWDXQqnik4HEVrA6R/osrUol/1GX6zgOPM/DbDHDdDrFar1GvdFAp9NBo1GH53twXHKwnc/nNJWkgGajYXYGPkXx0UiXoGsZHBQpP3EcY7Fc4P7uDnGSoN1qYTAYwFEKmzUdcwCtEVTIn0a0COXwXigKcB3ai2W/I1+UyWSMBR+vsN9vsd9uaZ+bxQLD4RAfPnzE7e0dZrMZgkqAfr9Pp9XXaqyM0Ru8Cxr3NB97IYoEKRYxtI75SIAYSidwHLb2sKVCs9VGs+KRKmsyUPIAagw4MnCm80SkGPDu0BzXYWd05dA9M/Aq4jaxVxyK01oAcZ+fpWmurNSwIqsAv+KjUa+j025hMOjhYiB763TQajVQC0PerVmRk7al9FBSkl9qpUm/c9mVzIll48hUl1GGJGTeuCy6pRAGT8lk7gGVpp3eYqWnNK30WpY2uXICrDxNyNSGBOuBzHeKL3/F+GnMsh/lsX8kfDnqpf18E3zlbPN6fVn42jQ9jQx1n4nT0nl+n5sX2LBr4ajioxUPYhmkj9t2BnPX/sm7J8tS6eVyCdd10e/30Ww24fsetNa8zF0hjiNst1skSQzP9VCtBjTlJfnkScmAOnY6lDy1VDiuizhJsF6vMByN4DgOut0eer0ewmoVrutgu9mwczJQrVbherQSCABtUsjlUuxX43kekjjGerPGYj7DbDrFdDrBeDzGaDTGaDTCYrlCHGuEYQ39QR+Di0v0ej2z4Z8CKxi25qBgvssgLecgZQ+j1FB8mGLqqMuDHKkjJg1J0rDOysP8lPLxvTQuf7MsQ+YZ6bhlOstEl8GdVsMpk4coHWkDp717FDzPRcXz4Fd8VHxageW6vMSdy0GKXWJ8V8Spm9LMWkcUQH4z9jSWKD4KmcM0hW56nhQLScukKQlbfDsbCobe9Frut4FdYTakNZbeLEG+JPLcqc+fgLLkX/AkskroV8ZXzPbUVeTqQEv4beClcXwPsGvhqOKD0rcSejxvYTD3ROlQFE+muIbDIeI4RoutLUEQAJqWMssOwJ7nYbPZYLfdYbff0Rs/n631VLPIUpHm7zoukjjBar3GdErWl8FggHarjVoY0u7AOsZuv8d+vwcchaAa8P41NMUjHNM6oYM6wxBexUccR9htt1iulthttthuNthtt4ijGJVKxZT14mKATqeDMKxaGwrywC2OrUoUFioJ/W+vPLKg6D/Fm0QCADRZZoQPttJDg7w8wxFKIHVp6FCansyYdZQZmNO8OLr1I3MPIBq47OQrlCouNA0lliiKKx/2W5BMqdGV7NSaKCzI02MiZIhJf/M1khnrvg0No0w+K6z8si976Wqw7NUiV1/wY+J3o/jkLxxBicj/RpDvfF7wLWDXwicrPuYXr4KCJodX87bPg9hyucSHDx+wWCwQhiGurq7RbLbgOA6iKEIcx1AO+cnUa3Xso4hW+0yncBwHQUAb0NHAcFrTkFgyXRNFEVarNdarNer1Oi4GFwjZoTmoVtDkc67oENUpbXTn0348NBjTaqUkieB5LqohrUhrtcj5uBoEqDfqaDYbtDcQH3r5+s1rXPJZV7THDS95N4pEYu3NkrOo8H0oa2pH+G7qhX+L1cWy+ChJwrbg8MMKqTEnc8coPuZCgefmuYyiIYpQ9nmSjNSyQioLlYesieJgDFaKQPkJfzQA3mfHKEB2PIsFpPjk8y8DPU+KlqVwlUc2PLSzOxbOAj9gHMMzKeRS5vupcviCHxkvik8R2Z7mt4RP6h1e8Mywa+GzFR+5Rh2yMsvXFe99M51OcX9/D9f10O12cHl5Ad/3EccaURyZzfGUQ6t+lFLGQrPf7xBUKmjU62agOgQeKsWdAzCHQ5LiQweGrlGthuh2OqSw6RgaCU21VMiS41cqaDSbqFR8s6khNNgRR0O5VEalFDyPHIJb7TYGvR5Zd/oD9Pq9dIdmazdj5ZDVyPiXiGJglStVFmiqMZ0OSfmuqGIoDt9TkM6U08noBTzY51WDHD8lrigy9lWDgjJkK2zpvTStNF76Kc/Q91Sx4e8QayI/YiknUgb65D+ZOpTouc8iskqTuar5ngVDZhrhOJT5rwCxVdlXgKxVK/NsZsaL6+5YI3guWMa0I8V5wWfgRfEpIt86fjso6WwK+LTS5/uUbyZTPwDsWpCtbD8b8l5v+nClsN3SLry73Q7VahX1Op1hRcqJTN/QZoVJTEcN1MIaWu0Wms0GNpsNZtMZlssFtKYNDxV4xC/Ub6rxiB9IOl7xWUw6dWjVSYw4jhDHEQCgVqui2+3g4mKAUJZNczpGKBVNfSVJDA1aoVSrheh3uxgM+hj0++j1uui0W6jVqvA9cmIm35SYrR0UjK+K0M4r6ehPlo6Ldchkz8WWcsrAJCOk3Qjs9O1rMMqV0RKNtlj2jMC+nwahh9JMoIwDMlmz5J4CW3XoS1oaTfVTCKwEGQXRrMQSC5EVrDLR52koFB884lvBsJ+Xzz8VzH+itNqhNFPJQPKxE0thxD3/vCHwBT8a7BZ/7O8FvwWU9Af5vqHYmxyFeSm3QvYl6gWH8CyKj5b+GHTcQ5LQCqvNhjYMdBwHjUYDYVgD2AKj+eBG16VTwhOd0BJq10G9Xke324WjFOaLOYZDOqBSxsqnzP1ifSJhI8WApqpiWpYNACBlKI4i7PY7RHEE13V48z46/yqFrCiynYn5Gv+mFVkxpRlHSOIIOomQJBFZlvhYhtS3h8ojpGrwNgKsLJDyw39mkEvbQ2olMWzJ0EsXyhqQ3UqIfrNEXPPy8ALkIj2TVTKy6QlPJJ6j2LeHHeVlaimtI/t3Ps9iIEUye1meTJUe29JUjpSndsjHOhfHOrGSoJCW37Ze2TyyPinV4t+zKz+WUvkkI1/wSSgo+k+EF/zIOKX+yuKUXXvBc+BMxedQLyhDjkxXOVivN5hMpliv16jXyfelFtYONmKtaepLa40gCNDv9XFxccmnf9PhpsfNePZ0CCsTfAo2APi+l1k6r63znGigpkEkTmI62gCiEKQDldmzRtMgL3vDkNKQDdRhWYpRztJDpErayHzSyjT+mUGWd1nrRjlfD4PLL0HTtVNTScmz6ZcVZ+mKKpt/QFa5MGnkM83/tsH3bNqlLHT9aaUHXO/5cOhBzdaek1GuPRLxhTwOxX3BC17w20FJX5gPB61A5yGvNB8Kv2c8ofhkhsb8TYbit8P0zXUf7TGdTDCfzRHHCZrNFsIwpDOWjvBbztdyHBfVMMTFxQD9/gANdj6mCiOLkqSjYR9OylDmDgAN13VQq4Wo12oIAp/ek1khEtrBq7aSODKKEGSaho7dSj+Rs5awMpQRKpMG0ULXyKJic/Mghy0+2c9Q3umUjj3QH6qhk6HNfydClCexOmSVKbsOJCjw0nLmjYlvt3lTZiuO1Rek5ZR05fuZsIn9FOYZJdiyutgknYOCxesFL3jBC17wJXBA8Tk0GhSvieLg8OGiSZJgu9liOBxitV7DdT20Wi34ng8FHLQpKKXgei7/otPcO50OBoM+Wq0WtLHesOVF0mFyjNm/JNDJ5jW02k1Uw6oVmwdWdo7VfCgn+QLRwJsG2nPGVnx0QlNYZBmyg506QxGVyCkq5jJ/Kq2gxOSjlWU8SMtTVH7ytZKF3D8W59OR0kL0lAfhZ6EcXIZSZKaxsp8pnkjjGPJkngO2AqWSZCnjZ75RifyVFO4FL3jBC17wzHCKvT932Gy9eXLYNI4Amnx1khibjSxHV3w8QROuS5sV0gnZ+URSyF40iSYfGDoPiqa6QOPNSW/HEkPrBEpreK6LdquFer0OKN6VGTDHaqSwB+kUZO0h6xZ0Ah2L0pMqICnkd8pT28Jhf9L31FJSRPqEBlm37Kmw8mdAQzLftKkBpyG/8yF/v6wspky5z6eDlDX7bHlIq7mMZ3aadh7y/6E/eSZ/ne5ZaRkTE2lfpODb9+W7hfLtd86EXa7fM0TITwlfCvl8ngo/CL6meJ3JljxHTw0/BvJU50LajVl19OOU7keAsNYpfzMtG8wJZpDg2/R2SyuyoBMsFwuMhkOsVgtUgwDtdgthWIXrOVYd0sMK/LbLxyIopNMGSmvQYnSYt+v0GaT+PnyjTE1TkLFLQye0Q7TrONbUBA2wAkMPu3sUBmO5ztN69oaBRanND+TZkPLYGkRz8z00BUdB04VCQ8jWkuSdXhdFSVvfCaaQxWDSER8n+TyA/POlwU7HCpky5wJQjJ8JnK6cLZeh9XAg/63idYDrwuYBKz+2ciRX8mVMaWDK89Of8nAOWkubsm+y8mddOYr8tNuh8EPg5FITeMf25wynvFwV8SnPfH1o+a9EPL5ISLM7GoigkhtPhe+e86e05Fxn8mT8HxPqk9pVFmlv/PRfORTUf/0v/5vOE0PR5b07e0eXpaXI8Vhrjffv3+Pdu3eYTqf485//jDdv3qDT6UInGgkrIOJwnElChN4iNp/7MZSRZRKwbp6aZj697Bv/qVBcTdkrnwdJ7Rw6TsV5aUtZPr9MJdCiyvLPzE2GWGQA/tTP2GlwwzHJP0eap0JKnstTFKTfOOxafRpi2Tz9idMg08zn1Pt5lB9D+Qvp80OK+KVyO4d7kHfAM/Gly/D54D7pKIEHxtYj+Foy8mxgg8Xn0n3u83n9Bod9fM6DyweR7nY7zGYzzOdzVCoV1Ot1OmVd0TCSJEmp0mMkwj5byXQip4W8RUUhdaL9lDTzaaX3zgHFl6G4yP4XHAfxT7iefSsnFYBCvl7yv89F6oxu5Z6L8yXxNfP6sfG9cypv9Ts1fC2Izmj3UU+Fc2D3nMfC7wJ5Rn4qU19wFvLtSfNsUuHG2VBAkiRG6YnjGO12G/V6nQ70TBLeoTkv7rbYf+9NIE/ztwpCy28dqWIDPG1woXhPRHrBC74mfpBmqlDSzRwKL/hE5Bl5aviKYPeKsvCjoPgCQTzMv1Swc/NnQgNxHGM+n2Oz2cB1XXS7XYRhCMdx2KGZ98ApVGyukvN+Ht9LMHzK0/wtwm8fGiysYAtPCRfSkH99+nEa6gte8D0g33oOhd9J9/PMKPZYxVAWT659HdiuBXk8i/LzDEUpWveP45BN51mmurSmjf/W6zWShE4w73Q6CIIAyj5BPEP0oUrOh+8J3xs9vweQHBSnKeWeqDn5+58TXvCCF7zga0KXaJnfP/IWFtuqUoZ8vHPDc3XPRvHJZnAofdms0A6ycSFZfZRSCIKgROmxcejaoesv+H0iKxPZfiG18wDkj0Oy9tzhBS94wQt++8grGfnwHHiudD4XrPjkO/tjxJWrpVqz0xDvu+N5HpSiDQ3pvqRJ6ctBnPmjHIpBnnnB7wtW3eeOA7F3y85q6c/XQF/wgvMkqdhvnmuWf8ELXvB18CxTXQJReETpOaQt5l/M6fehTsJWfr5lsOn51uF3AuNbdV54GXBe8FzIv/UeDunLX1mf94IX/O7xHbWJZ1N8XNdFr9fDxcUFut0ufN/PKD+fh+Lg9i2COGh/iZDP63AQfvwekC/7sZB9jHj6ghe84AUv+OrIWOTFulGcL/qUcC7yY62W5eyfBQUAGo6j0Ol0cHV1hcFg8IxKz/cCYZqsUHu+QLsNn4rfCj+fgpQzr+AcCxY+pYW84AUveMELTsJTlvX8wujnCNTVFxUZW9fIXDtAo/qv/+V/O3DHHBhxHLzMTfF3OWE9iiKAT0WwQXQXByrFSeXjfz+wLTPPDQWHzw57GhLv1PjnQMp2Whm/KCVan6kQ2uAz1T4D1IaED2cmpnH+MxbSZaW5NI405N8Kzm1hWp0ns6eD9lDQulALR3Au9T8eNJ7eU+tToECJf2rSJ3OdMzg5/tcA9zUFmgyjy7nybY0K+ujMVTnFp4ATPZA2tbADNxkFvihlLE7m0rEjK84jP30q/VWOMsKPV/H3gCLNz4l8HRzHOXHPgZTxtLJ+yTr7fCXz85SfbOM5hw7pWT8l8/xOGrk0voDi87ypfT7OkkCFc584A4r6yjOSTbdc+O1Cf6poPwGpyi+QdAYalNl3U0sah9u0pfgUBvNviC9HS9qWPzWPsuc03chcK1V8+Fax4z2I0xt8WrQsvuQg+iOgvA6+Ng7VTjm+ZJ1pba/W+gTIIa+fCJN/al/NRymBxZFPGB3SY3YP4JkVn/Nq++tB4zgbsvhSpSDFp6QfLQXV3Kly8uNC6ua5S6mkqX0FaHxS8/wyEMWntOxE5KkyeC4O53saypSMzwe1oWNpH+7XxQqVfZa68uy1/z9Z+rxl/TDojgAAAABJRU5ErkJggg==;" parent="1" vertex="1">
          <mxGeometry x="253" y="440" width="473.4" height="80" as="geometry" />
        </mxCell>
        <mxCell id="IoCzaxtXlCUUE1eKSygK-5" value="Х пользователей" style="text;html=1;align=center;verticalAlign=middle;whiteSpace=wrap;rounded=0;" parent="1" vertex="1">
          <mxGeometry x="210" y="550" width="60" height="30" as="geometry" />
        </mxCell>
        <mxCell id="IoCzaxtXlCUUE1eKSygK-6" value="По 60 сылок в секунду" style="text;html=1;align=center;verticalAlign=middle;whiteSpace=wrap;rounded=0;" parent="1" vertex="1">
          <mxGeometry x="310" y="555" width="60" height="30" as="geometry" />
        </mxCell>
        <mxCell id="IoCzaxtXlCUUE1eKSygK-7" value="на 10 лет" style="text;html=1;align=center;verticalAlign=middle;whiteSpace=wrap;rounded=0;" parent="1" vertex="1">
          <mxGeometry x="480" y="540" width="60" height="30" as="geometry" />
        </mxCell>
        <mxCell id="IoCzaxtXlCUUE1eKSygK-8" value="5) какие символы должна содержать короткая URL ? Только цифры, алфавит, например: a-z, A-Z, 0-9 = 62 символа" style="text;html=1;align=left;verticalAlign=middle;whiteSpace=wrap;rounded=0;" parent="1" vertex="1">
          <mxGeometry x="110" y="630" width="680" height="30" as="geometry" />
        </mxCell>
        <mxCell id="4KMYIVWugFlxjZfYYCnt-1" value="Считаем возможную мощность&lt;div&gt;1 символ в длинном URL = 62 варианта ссылки&lt;/div&gt;&lt;div&gt;2 символа&amp;nbsp;&lt;span style=&quot;background-color: transparent; color: light-dark(rgb(0, 0, 0), rgb(255, 255, 255));&quot;&gt;в длинном URL =&lt;/span&gt;&lt;span style=&quot;background-color: transparent; color: light-dark(rgb(0, 0, 0), rgb(255, 255, 255));&quot;&gt;&amp;nbsp;&lt;/span&gt;&lt;span style=&quot;background-color: transparent; color: light-dark(rgb(0, 0, 0), rgb(255, 255, 255));&quot;&gt;62^2&lt;/span&gt;&lt;/div&gt;&lt;div&gt;&lt;span style=&quot;background-color: transparent; color: light-dark(rgb(0, 0, 0), rgb(255, 255, 255));&quot;&gt;&lt;br&gt;&lt;/span&gt;&lt;/div&gt;&lt;div&gt;нам нужно такое N, чтобы 62^N &amp;gt; Y&lt;/div&gt;&lt;div&gt;N = log62 Y&lt;/div&gt;&lt;div&gt;&lt;br&gt;&lt;/div&gt;" style="text;html=1;align=left;verticalAlign=top;whiteSpace=wrap;rounded=0;" vertex="1" parent="1">
          <mxGeometry x="100" y="670" width="480" height="120" as="geometry" />
        </mxCell>
      </root>
    </mxGraphModel>
  </diagram>
  <diagram id="AxaLn4elRDzCJGgTYNee" name="Вариант-1">
    <mxGraphModel dx="1044" dy="722" grid="1" gridSize="10" guides="1" tooltips="1" connect="1" arrows="1" fold="1" page="1" pageScale="1" pageWidth="827" pageHeight="1169" math="0" shadow="0">
      <root>
        <mxCell id="0" />
        <mxCell id="1" parent="0" />
        <mxCell id="U7QeI7ysFexiW-dsIjF7-3" style="edgeStyle=orthogonalEdgeStyle;rounded=0;orthogonalLoop=1;jettySize=auto;html=1;exitX=1;exitY=0.5;exitDx=0;exitDy=0;startArrow=classic;startFill=1;" edge="1" parent="1" source="U7QeI7ysFexiW-dsIjF7-1" target="U7QeI7ysFexiW-dsIjF7-2">
          <mxGeometry relative="1" as="geometry" />
        </mxCell>
        <mxCell id="U7QeI7ysFexiW-dsIjF7-1" value="UI" style="rounded=0;whiteSpace=wrap;html=1;fillColor=#d5e8d4;strokeColor=#82b366;" vertex="1" parent="1">
          <mxGeometry x="50" y="190" width="120" height="60" as="geometry" />
        </mxCell>
        <mxCell id="U7QeI7ysFexiW-dsIjF7-5" style="edgeStyle=orthogonalEdgeStyle;rounded=0;orthogonalLoop=1;jettySize=auto;html=1;exitX=1;exitY=0.5;exitDx=0;exitDy=0;startArrow=classic;startFill=1;" edge="1" parent="1" source="U7QeI7ysFexiW-dsIjF7-2" target="U7QeI7ysFexiW-dsIjF7-4">
          <mxGeometry relative="1" as="geometry" />
        </mxCell>
        <mxCell id="U7QeI7ysFexiW-dsIjF7-2" value="LB +Reverse Proxy" style="shape=module;align=left;spacingLeft=20;align=center;verticalAlign=top;whiteSpace=wrap;html=1;fillColor=#f8cecc;strokeColor=#b85450;" vertex="1" parent="1">
          <mxGeometry x="240" y="140" width="100" height="160" as="geometry" />
        </mxCell>
        <mxCell id="U7QeI7ysFexiW-dsIjF7-7" style="edgeStyle=orthogonalEdgeStyle;rounded=0;orthogonalLoop=1;jettySize=auto;html=1;exitX=1;exitY=0.5;exitDx=0;exitDy=0;startArrow=classic;startFill=1;" edge="1" parent="1" source="U7QeI7ysFexiW-dsIjF7-4" target="U7QeI7ysFexiW-dsIjF7-6">
          <mxGeometry relative="1" as="geometry" />
        </mxCell>
        <mxCell id="U7QeI7ysFexiW-dsIjF7-4" value="Short URL Service" style="shape=module;align=left;spacingLeft=20;align=center;verticalAlign=top;whiteSpace=wrap;html=1;fillColor=#dae8fc;strokeColor=#6c8ebf;" vertex="1" parent="1">
          <mxGeometry x="430" y="195" width="100" height="50" as="geometry" />
        </mxCell>
        <mxCell id="U7QeI7ysFexiW-dsIjF7-6" value="Cassandra" style="shape=module;align=left;spacingLeft=20;align=center;verticalAlign=top;whiteSpace=wrap;html=1;fillColor=#f8cecc;strokeColor=#b85450;" vertex="1" parent="1">
          <mxGeometry x="610" y="195" width="100" height="50" as="geometry" />
        </mxCell>
        <mxCell id="U7QeI7ysFexiW-dsIjF7-8" value="Redis" style="shape=module;align=left;spacingLeft=20;align=center;verticalAlign=top;whiteSpace=wrap;html=1;fillColor=#f8cecc;strokeColor=#b85450;" vertex="1" parent="1">
          <mxGeometry x="610" y="90" width="100" height="50" as="geometry" />
        </mxCell>
        <mxCell id="U7QeI7ysFexiW-dsIjF7-9" value="&lt;h1 style=&quot;margin-top: 0px;&quot;&gt;Redis&lt;/h1&gt;&lt;p&gt;При горизонтальном масштабировании&amp;nbsp;&lt;span style=&quot;text-align: center; background-color: transparent; color: light-dark(rgb(0, 0, 0), rgb(255, 255, 255));&quot;&gt;Short URL Service генерация коротких URL несколькими экземплярами сервиса будет приводить к колизиям.&lt;/span&gt;&lt;span style=&quot;background-color: transparent; color: light-dark(rgb(0, 0, 0), rgb(255, 255, 255));&quot;&gt;&amp;nbsp;&lt;/span&gt;&lt;/p&gt;&lt;p&gt;&lt;span style=&quot;background-color: transparent; color: light-dark(rgb(0, 0, 0), rgb(255, 255, 255));&quot;&gt;Чтобы все сервисы не ходили в один Redis и он не стал бы единой&amp;nbsp; точкой отказа, делаем HA Redis Cluster. Тогда сервисы будут ходить на разные экземпляры Redis.&lt;/span&gt;&lt;/p&gt;" style="text;html=1;whiteSpace=wrap;overflow=hidden;rounded=0;" vertex="1" parent="1">
          <mxGeometry x="780" y="90" width="320" height="170" as="geometry" />
        </mxCell>
        <mxCell id="U7QeI7ysFexiW-dsIjF7-10" style="edgeStyle=orthogonalEdgeStyle;rounded=0;orthogonalLoop=1;jettySize=auto;html=1;entryX=0;entryY=0;entryDx=0;entryDy=15;entryPerimeter=0;" edge="1" parent="1" source="U7QeI7ysFexiW-dsIjF7-4" target="U7QeI7ysFexiW-dsIjF7-8">
          <mxGeometry relative="1" as="geometry">
            <Array as="points">
              <mxPoint x="480" y="105" />
            </Array>
          </mxGeometry>
        </mxCell>
      </root>
    </mxGraphModel>
  </diagram>
  <diagram id="NDv_W1T7HCdI1el-game" name="Вариант-2">
    <mxGraphModel dx="1044" dy="722" grid="1" gridSize="10" guides="1" tooltips="1" connect="1" arrows="1" fold="1" page="1" pageScale="1" pageWidth="827" pageHeight="1169" math="0" shadow="0">
      <root>
        <mxCell id="0" />
        <mxCell id="1" parent="0" />
        <mxCell id="W9wUmvmW4l1PRY-4D3EZ-3" style="edgeStyle=orthogonalEdgeStyle;rounded=0;orthogonalLoop=1;jettySize=auto;html=1;exitX=1;exitY=0.5;exitDx=0;exitDy=0;startArrow=classic;startFill=1;entryX=0.1;entryY=0.158;entryDx=0;entryDy=0;entryPerimeter=0;" edge="1" parent="1" source="pKjaAFFZdaWw0Awyjyb3-2" target="1O7Ypy5HTy7Xi3kcHkv5-1">
          <mxGeometry relative="1" as="geometry" />
        </mxCell>
        <mxCell id="pKjaAFFZdaWw0Awyjyb3-2" value="LongToShortUI" style="rounded=0;whiteSpace=wrap;html=1;fillColor=#d5e8d4;strokeColor=#82b366;" vertex="1" parent="1">
          <mxGeometry x="50" y="190" width="120" height="60" as="geometry" />
        </mxCell>
        <mxCell id="W9wUmvmW4l1PRY-4D3EZ-4" style="edgeStyle=orthogonalEdgeStyle;rounded=0;orthogonalLoop=1;jettySize=auto;html=1;exitX=0.98;exitY=0.08;exitDx=0;exitDy=0;startArrow=classic;startFill=1;exitPerimeter=0;" edge="1" parent="1" source="1O7Ypy5HTy7Xi3kcHkv5-1" target="W9wUmvmW4l1PRY-4D3EZ-1">
          <mxGeometry relative="1" as="geometry" />
        </mxCell>
        <mxCell id="W9wUmvmW4l1PRY-4D3EZ-5" style="edgeStyle=orthogonalEdgeStyle;rounded=0;orthogonalLoop=1;jettySize=auto;html=1;exitX=1.012;exitY=0.284;exitDx=0;exitDy=0;startArrow=classic;startFill=1;exitPerimeter=0;" edge="1" parent="1" source="1O7Ypy5HTy7Xi3kcHkv5-1" target="W9wUmvmW4l1PRY-4D3EZ-2">
          <mxGeometry relative="1" as="geometry" />
        </mxCell>
        <mxCell id="1O7Ypy5HTy7Xi3kcHkv5-1" value="LB +Reverse Proxy" style="shape=module;align=left;spacingLeft=20;align=center;verticalAlign=top;whiteSpace=wrap;html=1;fillColor=#f8cecc;strokeColor=#b85450;" vertex="1" parent="1">
          <mxGeometry x="240" y="140" width="100" height="510" as="geometry" />
        </mxCell>
        <mxCell id="S9OETNYf8uvw2lCBYhsa-2" style="rounded=0;orthogonalLoop=1;jettySize=auto;html=1;exitX=1;exitY=0.25;exitDx=0;exitDy=0;startArrow=classic;startFill=1;" edge="1" parent="1" source="W9wUmvmW4l1PRY-4D3EZ-1" target="S9OETNYf8uvw2lCBYhsa-1">
          <mxGeometry relative="1" as="geometry" />
        </mxCell>
        <mxCell id="W9wUmvmW4l1PRY-4D3EZ-1" value="Short URL Service" style="shape=module;align=left;spacingLeft=20;align=center;verticalAlign=top;whiteSpace=wrap;html=1;fillColor=#dae8fc;strokeColor=#6c8ebf;" vertex="1" parent="1">
          <mxGeometry x="440" y="156" width="100" height="50" as="geometry" />
        </mxCell>
        <mxCell id="W9wUmvmW4l1PRY-4D3EZ-7" style="rounded=0;orthogonalLoop=1;jettySize=auto;html=1;exitX=1;exitY=0.5;exitDx=0;exitDy=0;startArrow=classic;startFill=1;" edge="1" parent="1" source="W9wUmvmW4l1PRY-4D3EZ-2" target="W9wUmvmW4l1PRY-4D3EZ-6">
          <mxGeometry relative="1" as="geometry" />
        </mxCell>
        <mxCell id="S9OETNYf8uvw2lCBYhsa-3" style="rounded=0;orthogonalLoop=1;jettySize=auto;html=1;exitX=1;exitY=0.25;exitDx=0;exitDy=0;startArrow=classic;startFill=1;" edge="1" parent="1" source="W9wUmvmW4l1PRY-4D3EZ-2" target="S9OETNYf8uvw2lCBYhsa-1">
          <mxGeometry relative="1" as="geometry" />
        </mxCell>
        <mxCell id="W9wUmvmW4l1PRY-4D3EZ-2" value="Short URL Service" style="shape=module;align=left;spacingLeft=20;align=center;verticalAlign=top;whiteSpace=wrap;html=1;fillColor=#dae8fc;strokeColor=#6c8ebf;" vertex="1" parent="1">
          <mxGeometry x="440" y="260" width="100" height="50" as="geometry" />
        </mxCell>
        <mxCell id="W9wUmvmW4l1PRY-4D3EZ-6" value="Token Service" style="shape=module;align=left;spacingLeft=20;align=center;verticalAlign=top;whiteSpace=wrap;html=1;fillColor=#dae8fc;strokeColor=#6c8ebf;" vertex="1" parent="1">
          <mxGeometry x="640" y="250" width="100" height="50" as="geometry" />
        </mxCell>
        <mxCell id="S9OETNYf8uvw2lCBYhsa-1" value="Cassandra" style="shape=module;align=left;spacingLeft=20;align=center;verticalAlign=top;whiteSpace=wrap;html=1;fillColor=#f8cecc;strokeColor=#b85450;" vertex="1" parent="1">
          <mxGeometry x="640" y="156" width="100" height="50" as="geometry" />
        </mxCell>
        <mxCell id="S9OETNYf8uvw2lCBYhsa-4" style="rounded=0;orthogonalLoop=1;jettySize=auto;html=1;exitX=1;exitY=0.75;exitDx=0;exitDy=0;entryX=0;entryY=0;entryDx=0;entryDy=15;entryPerimeter=0;" edge="1" parent="1" source="W9wUmvmW4l1PRY-4D3EZ-1" target="W9wUmvmW4l1PRY-4D3EZ-6">
          <mxGeometry relative="1" as="geometry" />
        </mxCell>
        <mxCell id="S9OETNYf8uvw2lCBYhsa-5" value="&lt;h1 style=&quot;margin-top: 0px;&quot;&gt;Token Service&lt;/h1&gt;&lt;p&gt;Сервисы&amp;nbsp;&lt;span style=&quot;text-align: center; background-color: transparent; color: light-dark(rgb(0, 0, 0), rgb(255, 255, 255));&quot;&gt;Short URL Service нуждаются в числе для генерации гарантированнно уникального URL.&lt;/span&gt;&lt;/p&gt;&lt;p&gt;&lt;span style=&quot;text-align: center; background-color: transparent; color: light-dark(rgb(0, 0, 0), rgb(255, 255, 255));&quot;&gt;Раздать интервалы на эти сервисы:&lt;/span&gt;&lt;/p&gt;&lt;p&gt;&lt;span style=&quot;text-align: center; background-color: transparent; color: light-dark(rgb(0, 0, 0), rgb(255, 255, 255));&quot;&gt;1 машина запрашивает и получает интервал 1-1000&lt;/span&gt;&lt;/p&gt;&lt;p&gt;&lt;span style=&quot;text-align: center; background-color: transparent; color: light-dark(rgb(0, 0, 0), rgb(255, 255, 255));&quot;&gt;2 мишина запрашивает и получаетинтервал 1001-2000&lt;/span&gt;&lt;/p&gt;&lt;p&gt;&lt;span style=&quot;text-align: center; background-color: transparent; color: light-dark(rgb(0, 0, 0), rgb(255, 255, 255));&quot;&gt;и т.д&lt;/span&gt;&lt;/p&gt;&lt;p&gt;&lt;span style=&quot;text-align: center;&quot;&gt;1 машина исчерпала интервал и запрашивает новый. Получает интервал 5001-6000&lt;/span&gt;&lt;span style=&quot;text-align: center; background-color: transparent; color: light-dark(rgb(0, 0, 0), rgb(255, 255, 255));&quot;&gt;&lt;/span&gt;&lt;/p&gt;" style="text;html=1;whiteSpace=wrap;overflow=hidden;rounded=0;" vertex="1" parent="1">
          <mxGeometry x="780" y="120" width="426" height="240" as="geometry" />
        </mxCell>
        <mxCell id="lEGMfsVXsHUM-ibsZfxV-1" value="&lt;h1 style=&quot;margin-top: 0px;&quot;&gt;НеПроблема&lt;/h1&gt;&lt;p&gt;Если сервис рестартовал, то выделенные ему токены пропадут.Допустим это будет присходить несколько раз в день. Утечка токенов будет значительная.&amp;nbsp;&lt;/p&gt;" style="text;html=1;whiteSpace=wrap;overflow=hidden;rounded=0;" vertex="1" parent="1">
          <mxGeometry x="780" y="370" width="376" height="120" as="geometry" />
        </mxCell>
        <mxCell id="lEGMfsVXsHUM-ibsZfxV-2" value="ShortToLongUI" style="rounded=0;whiteSpace=wrap;html=1;fillColor=#d5e8d4;strokeColor=#82b366;" vertex="1" parent="1">
          <mxGeometry x="50" y="525" width="120" height="60" as="geometry" />
        </mxCell>
        <mxCell id="lEGMfsVXsHUM-ibsZfxV-3" style="edgeStyle=orthogonalEdgeStyle;rounded=0;orthogonalLoop=1;jettySize=auto;html=1;exitX=1;exitY=0.5;exitDx=0;exitDy=0;entryX=0.092;entryY=0.813;entryDx=0;entryDy=0;entryPerimeter=0;startArrow=classic;startFill=1;" edge="1" parent="1" source="lEGMfsVXsHUM-ibsZfxV-2" target="1O7Ypy5HTy7Xi3kcHkv5-1">
          <mxGeometry relative="1" as="geometry" />
        </mxCell>
        <mxCell id="lEGMfsVXsHUM-ibsZfxV-7" style="edgeStyle=orthogonalEdgeStyle;rounded=0;orthogonalLoop=1;jettySize=auto;html=1;exitX=1;exitY=0.5;exitDx=0;exitDy=0;startArrow=classic;startFill=1;" edge="1" parent="1" source="lEGMfsVXsHUM-ibsZfxV-4" target="lEGMfsVXsHUM-ibsZfxV-6">
          <mxGeometry relative="1" as="geometry" />
        </mxCell>
        <mxCell id="lEGMfsVXsHUM-ibsZfxV-4" value="Short URL Service" style="shape=module;align=left;spacingLeft=20;align=center;verticalAlign=top;whiteSpace=wrap;html=1;fillColor=#dae8fc;strokeColor=#6c8ebf;" vertex="1" parent="1">
          <mxGeometry x="440" y="530" width="100" height="50" as="geometry" />
        </mxCell>
        <mxCell id="lEGMfsVXsHUM-ibsZfxV-5" style="edgeStyle=orthogonalEdgeStyle;rounded=0;orthogonalLoop=1;jettySize=auto;html=1;entryX=0.988;entryY=0.813;entryDx=0;entryDy=0;entryPerimeter=0;startArrow=classic;startFill=1;" edge="1" parent="1" source="lEGMfsVXsHUM-ibsZfxV-4" target="1O7Ypy5HTy7Xi3kcHkv5-1">
          <mxGeometry relative="1" as="geometry" />
        </mxCell>
        <mxCell id="lEGMfsVXsHUM-ibsZfxV-6" value="Cassandra" style="shape=module;align=left;spacingLeft=20;align=center;verticalAlign=top;whiteSpace=wrap;html=1;fillColor=#f8cecc;strokeColor=#b85450;" vertex="1" parent="1">
          <mxGeometry x="640" y="530" width="100" height="50" as="geometry" />
        </mxCell>
      </root>
    </mxGraphModel>
  </diagram>
</mxfile>
